<svg width="1319" height="706" viewBox="0 0 1319 706" fill="none" xmlns="http://www.w3.org/2000/svg">
<line x1="1062.18" y1="79.8942" x2="872.035" y2="630.766" stroke="#F7A70C" stroke-width="30"/>
<line x1="1251.23" y1="411.518" x2="683.401" y2="263.946" stroke="#F7A70C" stroke-width="30"/>
<line x1="1240.36" y1="201.069" x2="691.794" y2="510.07" stroke="#F7A70C" stroke-width="30"/>
<line x1="826.602" y1="114.864" x2="1123.78" y2="575.13" stroke="#F7A70C" stroke-width="30"/>
<ellipse cx="965.797" cy="347.523" rx="145.474" ry="139.106" transform="rotate(13.9059 965.797 347.523)" fill="#FFD703"/>
<path d="M1117.15 385.5C1097.97 462.961 1016.34 510.197 934.095 489.835C851.85 469.472 801.685 389.605 820.863 312.144C840.041 234.683 921.674 187.447 1003.92 207.81C1086.17 228.172 1136.33 308.039 1117.15 385.5Z" stroke="white" stroke-width="20"/>
<rect x="369.5" y="359.5" width="589" height="255" rx="14.5" fill="white" stroke="black" stroke-width="5"/>
<mask id="path-8-inside-1" fill="white">
<rect x="390" y="301" width="97" height="44" rx="3"/>
</mask>
<rect x="390" y="301" width="97" height="44" rx="3" fill="#5E5E5E" stroke="black" stroke-width="10" mask="url(#path-8-inside-1)"/>
<mask id="path-9-inside-2" fill="white">
<rect x="840" y="301" width="97" height="44" rx="3"/>
</mask>
<rect x="840" y="301" width="97" height="44" rx="3" fill="#5E5E5E" stroke="black" stroke-width="10" mask="url(#path-9-inside-2)"/>
<line x1="441" y1="307" x2="441" y2="339" stroke="white" stroke-width="10"/>
<line x1="457.036" y1="323" x2="425.037" y2="323.236" stroke="white" stroke-width="10"/>
<line x1="903.036" y1="322" x2="871.037" y2="322.236" stroke="white" stroke-width="10"/>
<path d="M475.034 458.293C475.034 469.475 471.372 478.044 464.048 484.001C456.724 489.958 446.299 492.937 432.773 492.937H421.641V533H404.136V425.92H434.971C448.35 425.92 458.359 428.654 465 434.123C471.689 439.592 475.034 447.648 475.034 458.293ZM421.641 478.215H430.942C439.927 478.215 446.519 476.652 450.718 473.527C454.917 470.402 457.017 465.52 457.017 458.879C457.017 452.727 455.137 448.137 451.377 445.109C447.617 442.082 441.758 440.568 433.799 440.568H421.641V478.215ZM591.489 479.313C591.489 496.745 587.119 510.295 578.379 519.963C569.688 529.631 557.358 534.465 541.392 534.465C525.229 534.465 512.803 529.68 504.111 520.109C495.469 510.49 491.147 496.843 491.147 479.167C491.147 461.491 495.493 447.917 504.185 438.444C512.925 428.972 525.376 424.235 541.538 424.235C557.456 424.235 569.761 429.045 578.452 438.664C587.144 448.283 591.489 461.833 591.489 479.313ZM509.751 479.313C509.751 492.497 512.412 502.507 517.734 509.343C523.057 516.13 530.942 519.523 541.392 519.523C551.792 519.523 559.629 516.154 564.902 509.416C570.225 502.678 572.886 492.644 572.886 479.313C572.886 466.179 570.249 456.218 564.976 449.431C559.751 442.644 551.938 439.25 541.538 439.25C531.04 439.25 523.105 442.644 517.734 449.431C512.412 456.218 509.751 466.179 509.751 479.313ZM713.291 533H694.248L676.084 469.133C675.303 466.35 674.326 462.346 673.154 457.121C671.982 451.848 671.274 448.186 671.03 446.135C670.542 449.26 669.736 453.312 668.613 458.293C667.539 463.273 666.636 466.984 665.903 469.426L648.179 533H629.136L615.293 479.387L601.23 425.92H619.102L634.409 488.322C636.802 498.332 638.511 507.17 639.536 514.836C640.073 510.686 640.879 506.047 641.953 500.92C643.027 495.793 644.004 491.643 644.883 488.469L662.314 425.92H679.673L697.544 488.762C699.253 494.572 701.06 503.264 702.964 514.836C703.696 507.854 705.454 498.967 708.237 488.176L723.472 425.92H741.196L713.291 533ZM817.002 533H756.431V425.92H817.002V440.715H773.936V469.865H814.292V484.514H773.936V518.132H817.002V533ZM857.725 475.725H869.883C878.037 475.725 883.945 474.211 887.607 471.184C891.27 468.156 893.101 463.664 893.101 457.707C893.101 451.652 891.123 447.307 887.168 444.67C883.213 442.033 877.256 440.715 869.297 440.715H857.725V475.725ZM857.725 490.227V533H840.22V425.92H870.469C884.287 425.92 894.517 428.508 901.157 433.684C907.798 438.859 911.118 446.672 911.118 457.121C911.118 470.451 904.185 479.948 890.317 485.612L920.566 533H900.645L875.01 490.227H857.725Z" fill="#4482DF"/>
<path d="M34.8 432.6C47.4667 432.6 58.4667 434.4 67.8 438C77.2667 441.6 84.8667 448.467 90.6 458.6C96.4667 468.733 99.4 482.933 99.4 501.2C99.4 547.733 78.8 571 37.6 571H0.400001V432.6H34.8ZM29.2 453.8V549.8H39.2C49.0667 549.8 56.6 546.333 61.8 539.4C67 532.333 69.6 519.6 69.6 501.2C69.6 488.4 68.2667 478.533 65.6 471.6C63.0667 464.667 59.6 460 55.2 457.6C50.8 455.067 45.4 453.8 39 453.8H29.2ZM147.559 432.6V571H118.759V432.6H147.559ZM226.275 429.4C234.675 429.4 242.208 430.867 248.875 433.8C255.675 436.6 261.942 440.667 267.675 446L253.075 461C248.542 457.4 244.342 454.8 240.475 453.2C236.608 451.6 232.208 450.8 227.275 450.8C206.875 450.8 196.675 467.8 196.675 501.8C196.675 514.733 197.608 524.933 199.475 532.4C201.475 539.733 204.342 544.933 208.075 548C211.942 551.067 216.942 552.6 223.075 552.6C229.475 552.6 235.342 551 240.675 547.8V513H223.875L221.075 492.2H268.275V560.2C261.742 564.6 254.608 568.067 246.875 570.6C239.142 573 231.342 574.2 223.475 574.2C204.542 574.2 190.342 568.2 180.875 556.2C171.542 544.2 166.875 526 166.875 501.6C166.875 486 169.475 472.8 174.675 462C179.875 451.067 186.942 442.933 195.875 437.6C204.942 432.133 215.075 429.4 226.275 429.4ZM318.263 432.6V571H289.463V432.6H318.263Z" fill="white"/>
</svg>
