<svg width="220" height="120" viewBox="0 0 749 265" fill="none" xmlns="http://www.w3.org/2000/svg">
<path d="M71.7132 134.091C80.8285 134.091 87.7255 136.471 92.4042 141.23C97.1635 145.909 99.5432 152.806 99.5432 161.921V190.961C99.5432 200.076 97.1635 207.014 92.4042 211.773C87.7255 216.452 80.8285 218.791 71.7132 218.791H24.5232V134.091H71.7132ZM77.7632 161.921C77.7632 154.661 74.1332 151.031 66.8732 151.031H46.3032V201.851H66.8732C74.1332 201.851 77.7632 198.221 77.7632 190.961V161.921ZM151.54 218.791H107.98V201.851H118.87V151.031H107.98V134.091H151.54V151.031H140.65V201.851H151.54V218.791ZM235.021 216.976C216.145 218.993 198.801 220.001 182.991 220.001C175.085 220.001 169.277 218.146 165.567 214.435C161.856 210.724 160.001 204.916 160.001 197.011V158.291C160.001 149.821 161.896 143.69 165.688 139.899C169.56 136.027 175.731 134.091 184.201 134.091H227.761V151.031H189.041C184.201 151.031 181.781 153.451 181.781 158.291V197.011C181.781 198.866 182.305 200.359 183.354 201.488C184.483 202.537 185.975 203.061 187.831 203.061C197.107 203.061 205.577 202.859 213.241 202.456V184.911H197.511V170.391H235.021V216.976ZM287.074 218.791H243.514V201.851H254.404V151.031H243.514V134.091H287.074V151.031H276.184V201.851H287.074V218.791ZM297.955 134.091H348.775C357.245 134.091 363.375 136.027 367.167 139.899C371.039 143.69 372.975 149.821 372.975 158.291V170.391C372.975 178.861 371.039 185.032 367.167 188.904C363.375 192.695 357.245 194.591 348.775 194.591H319.735V218.791H297.955V134.091ZM351.195 158.291C351.195 153.451 348.775 151.031 343.935 151.031H319.735V177.651H343.935C348.775 177.651 351.195 175.231 351.195 170.391V158.291ZM438.31 157.081C438.31 152.241 435.89 149.821 431.05 149.821H410.48C405.64 149.821 403.22 152.241 403.22 157.081V195.801C403.22 200.641 405.64 203.061 410.48 203.061H431.05C435.89 203.061 438.31 200.641 438.31 195.801V157.081ZM460.09 195.801C460.09 204.271 458.154 210.442 454.282 214.314C450.491 218.105 444.36 220.001 435.89 220.001H405.64C397.17 220.001 390.999 218.105 387.127 214.314C383.336 210.442 381.44 204.271 381.44 195.801V157.081C381.44 148.611 383.336 142.48 387.127 138.689C390.999 134.817 397.17 132.881 405.64 132.881H435.89C444.36 132.881 450.491 134.817 454.282 138.689C458.154 142.48 460.09 148.611 460.09 157.081V195.801ZM533.72 134.091L548.24 188.541L560.945 134.091H584.54L561.55 218.791H538.56L524.04 166.156L509.52 218.791H486.53L463.54 134.091H487.135L499.84 188.541L514.36 134.091H533.72ZM657.802 218.791H590.647V134.091H657.802V151.031H612.427V167.366H648.122V184.306H612.427V201.851H657.802V218.791ZM667.454 134.091H718.274C726.744 134.091 732.875 136.027 736.666 139.899C740.538 143.69 742.474 149.821 742.474 158.291V169.181C742.474 175.876 741.345 181.079 739.086 184.79C736.908 188.501 733.399 190.961 728.559 192.171L743.684 218.791H720.089L706.174 193.381H689.234V218.791H667.454V134.091ZM720.694 158.291C720.694 153.451 718.274 151.031 713.434 151.031H689.234V176.441H713.434C718.274 176.441 720.694 174.021 720.694 169.181V158.291Z" fill="#4B4FA2"/>
<path d="M348.264 9.05439H331V4H348.264V9.05439Z" stroke="#FBB040" stroke-width="8" stroke-miterlimit="10"/>
<path d="M433.355 9.05439H416.091V4H433.355V9.05439Z" stroke="#FBB040" stroke-width="8" stroke-miterlimit="10"/>
<path d="M421.229 47.5003H440.725C442.066 47.5003 443.154 46.4858 443.154 45.2337C443.154 43.9817 442.066 42.966 440.725 42.966H421.229C419.884 42.966 418.8 43.9806 418.8 45.2337C418.8 46.4858 419.884 47.5003 421.229 47.5003Z" fill="#FBB040"/>
<path d="M331.653 49.8936H339.011V56.5859C339.011 57.8492 340.198 58.8695 341.664 58.8695C343.128 58.8695 344.316 57.8492 344.316 56.5859V49.8936H352.929C354.395 49.8936 355.582 48.8745 355.582 47.6123C355.582 46.3523 354.395 45.3299 352.929 45.3299H344.316V38.2824C344.316 37.0213 343.129 36 341.664 36C340.198 36 339.011 37.0213 339.011 38.2824V45.3299H331.653C330.184 45.3299 329 46.3523 329 47.6123C329 48.8734 330.186 49.8936 331.653 49.8936Z" fill="#FBB040"/>
<path d="M454 99.9956C454 104.001 450.026 108.213 443.844 108.213H321.156C314.974 108.213 311 104.001 311 99.9956V26.5883C311 22.5825 314.974 18.3709 321.156 18.3709H443.844C450.026 18.3709 454 22.5825 454 26.5883V99.9956Z" stroke="#FBB040" stroke-width="8" stroke-miterlimit="10"/>
</svg>
