<svg width="220" height="120" viewBox="0 0 798 512" fill="none" xmlns="http://www.w3.org/2000/svg">
<g filter="url(#filter0_d)">
<path d="M100.03 330.3C109.146 330.3 116.043 332.68 120.721 337.439C125.481 342.118 127.86 349.015 127.86 358.13V387.17C127.86 396.285 125.481 403.223 120.721 407.982C116.043 412.661 109.146 415 100.03 415H52.8402V330.3H100.03ZM106.08 358.13C106.08 350.87 102.45 347.24 95.1902 347.24H74.6202V398.06H95.1902C102.45 398.06 106.08 394.43 106.08 387.17V358.13ZM263.338 413.185C244.462 415.202 227.118 416.21 211.308 416.21C203.402 416.21 197.594 414.355 193.884 410.644C190.173 406.933 188.318 401.125 188.318 393.22V354.5C188.318 346.03 190.213 339.899 194.005 336.108C197.877 332.236 204.048 330.3 212.518 330.3H256.078V347.24H217.358C212.518 347.24 210.098 349.66 210.098 354.5V393.22C210.098 395.075 210.622 396.568 211.671 397.697C212.8 398.746 214.292 399.27 216.148 399.27C225.424 399.27 233.894 399.068 241.558 398.665V381.12H225.828V366.6H263.338V413.185ZM326.272 330.3H377.092C385.562 330.3 391.693 332.236 395.484 336.108C399.356 339.899 401.292 346.03 401.292 354.5V366.6C401.292 375.07 399.356 381.241 395.484 385.113C391.693 388.904 385.562 390.8 377.092 390.8H348.052V415H326.272V330.3ZM379.512 354.5C379.512 349.66 377.092 347.24 372.252 347.24H348.052V373.86H372.252C377.092 373.86 379.512 371.44 379.512 366.6V354.5ZM706.798 415H639.643V330.3H706.798V347.24H661.423V363.575H697.118V380.515H661.423V398.06H706.798V415Z" fill="#E82020"/>
<path d="M179.857 415H136.297V398.06H147.187V347.24H136.297V330.3H179.857V347.24H168.967V398.06H179.857V415ZM315.391 415H271.831V398.06H282.721V347.24H271.831V330.3H315.391V347.24H304.501V398.06H315.391V415ZM582.716 330.3L597.236 384.75L609.941 330.3H633.536L610.546 415H587.556L573.036 362.365L558.516 415H535.526L512.536 330.3H536.131L548.836 384.75L563.356 330.3H582.716ZM716.45 330.3H767.27C775.74 330.3 781.87 332.236 785.662 336.108C789.534 339.899 791.47 346.03 791.47 354.5V365.39C791.47 372.085 790.34 377.288 788.082 380.999C785.904 384.71 782.395 387.17 777.555 388.38L792.68 415H769.085L755.17 389.59H738.23V415H716.45V330.3ZM769.69 354.5C769.69 349.66 767.27 347.24 762.43 347.24H738.23V372.65H762.43C767.27 372.65 769.69 370.23 769.69 365.39V354.5Z" fill="#37A849"/>
<path d="M120.721 337.439L119.295 338.841L119.307 338.853L119.319 338.865L120.721 337.439ZM120.721 407.982L122.135 409.396L122.135 409.396L120.721 407.982ZM52.8402 415H50.8402V417H52.8402V415ZM52.8402 330.3V328.3H50.8402V330.3H52.8402ZM74.6202 347.24V345.24H72.6202V347.24H74.6202ZM74.6202 398.06H72.6202V400.06H74.6202V398.06ZM100.03 332.3C108.811 332.3 115.113 334.587 119.295 338.841L122.147 336.037C116.972 330.772 109.48 328.3 100.03 328.3V332.3ZM119.319 338.865C123.573 343.047 125.86 349.35 125.86 358.13H129.86C129.86 348.68 127.388 341.188 122.123 336.013L119.319 338.865ZM125.86 358.13V387.17H129.86V358.13H125.86ZM125.86 387.17C125.86 395.948 123.574 402.301 119.307 406.568L122.135 409.396C127.387 404.144 129.86 396.623 129.86 387.17H125.86ZM119.307 406.568C115.127 410.748 108.82 413 100.03 413V417C109.471 417 116.958 414.573 122.135 409.396L119.307 406.568ZM100.03 413H52.8402V417H100.03V413ZM54.8402 415V330.3H50.8402V415H54.8402ZM52.8402 332.3H100.03V328.3H52.8402V332.3ZM108.08 358.13C108.08 354.192 107.094 350.871 104.772 348.548C102.45 346.226 99.1285 345.24 95.1902 345.24V349.24C98.5119 349.24 100.636 350.069 101.943 351.377C103.251 352.684 104.08 354.808 104.08 358.13H108.08ZM95.1902 345.24H74.6202V349.24H95.1902V345.24ZM72.6202 347.24V398.06H76.6202V347.24H72.6202ZM74.6202 400.06H95.1902V396.06H74.6202V400.06ZM95.1902 400.06C99.1285 400.06 102.45 399.074 104.772 396.752C107.094 394.429 108.08 391.108 108.08 387.17H104.08C104.08 390.492 103.251 392.616 101.943 393.923C100.636 395.231 98.5119 396.06 95.1902 396.06V400.06ZM108.08 387.17V358.13H104.08V387.17H108.08ZM179.857 415V417H181.857V415H179.857ZM136.297 415H134.297V417H136.297V415ZM136.297 398.06V396.06H134.297V398.06H136.297ZM147.187 398.06V400.06H149.187V398.06H147.187ZM147.187 347.24H149.187V345.24H147.187V347.24ZM136.297 347.24H134.297V349.24H136.297V347.24ZM136.297 330.3V328.3H134.297V330.3H136.297ZM179.857 330.3H181.857V328.3H179.857V330.3ZM179.857 347.24V349.24H181.857V347.24H179.857ZM168.967 347.24V345.24H166.967V347.24H168.967ZM168.967 398.06H166.967V400.06H168.967V398.06ZM179.857 398.06H181.857V396.06H179.857V398.06ZM179.857 413H136.297V417H179.857V413ZM138.297 415V398.06H134.297V415H138.297ZM136.297 400.06H147.187V396.06H136.297V400.06ZM149.187 398.06V347.24H145.187V398.06H149.187ZM147.187 345.24H136.297V349.24H147.187V345.24ZM138.297 347.24V330.3H134.297V347.24H138.297ZM136.297 332.3H179.857V328.3H136.297V332.3ZM177.857 330.3V347.24H181.857V330.3H177.857ZM179.857 345.24H168.967V349.24H179.857V345.24ZM166.967 347.24V398.06H170.967V347.24H166.967ZM168.967 400.06H179.857V396.06H168.967V400.06ZM177.857 398.06V415H181.857V398.06H177.857ZM263.338 413.185L263.55 415.174L265.338 414.983V413.185H263.338ZM193.884 410.644L195.298 409.23L195.298 409.23L193.884 410.644ZM194.005 336.108L195.419 337.522L195.419 337.522L194.005 336.108ZM256.078 330.3H258.078V328.3H256.078V330.3ZM256.078 347.24V349.24H258.078V347.24H256.078ZM211.671 397.697L210.205 399.058L210.255 399.112L210.31 399.163L211.671 397.697ZM241.558 398.665L241.663 400.662L243.558 400.563V398.665H241.558ZM241.558 381.12H243.558V379.12H241.558V381.12ZM225.828 381.12H223.828V383.12H225.828V381.12ZM225.828 366.6V364.6H223.828V366.6H225.828ZM263.338 366.6H265.338V364.6H263.338V366.6ZM263.125 411.196C244.306 413.207 227.035 414.21 211.308 414.21V418.21C227.202 418.21 244.617 417.196 263.55 415.174L263.125 411.196ZM211.308 414.21C203.668 414.21 198.48 412.412 195.298 409.23L192.469 412.058C196.708 416.297 203.137 418.21 211.308 418.21V414.21ZM195.298 409.23C192.115 406.047 190.318 400.86 190.318 393.22H186.318C186.318 401.391 188.231 407.819 192.469 412.058L195.298 409.23ZM190.318 393.22V354.5H186.318V393.22H190.318ZM190.318 354.5C190.318 346.263 192.171 340.771 195.419 337.522L192.59 334.694C188.256 339.028 186.318 345.797 186.318 354.5H190.318ZM195.419 337.522C198.754 334.187 204.295 332.3 212.518 332.3V328.3C203.8 328.3 196.999 330.285 192.59 334.694L195.419 337.522ZM212.518 332.3H256.078V328.3H212.518V332.3ZM254.078 330.3V347.24H258.078V330.3H254.078ZM256.078 345.24H217.358V349.24H256.078V345.24ZM217.358 345.24C214.629 345.24 212.216 345.923 210.498 347.641C208.781 349.358 208.098 351.772 208.098 354.5H212.098C212.098 352.388 212.624 351.172 213.327 350.469C214.03 349.767 215.246 349.24 217.358 349.24V345.24ZM208.098 354.5V393.22H212.098V354.5H208.098ZM208.098 393.22C208.098 395.471 208.745 397.486 210.205 399.058L213.136 396.336C212.499 395.649 212.098 394.679 212.098 393.22H208.098ZM210.31 399.163C211.882 400.622 213.896 401.27 216.148 401.27V397.27C214.688 397.27 213.718 396.869 213.032 396.231L210.31 399.163ZM216.148 401.27C225.452 401.27 233.958 401.068 241.663 400.662L241.453 396.668C233.831 397.069 225.396 397.27 216.148 397.27V401.27ZM243.558 398.665V381.12H239.558V398.665H243.558ZM241.558 379.12H225.828V383.12H241.558V379.12ZM227.828 381.12V366.6H223.828V381.12H227.828ZM225.828 368.6H263.338V364.6H225.828V368.6ZM261.338 366.6V413.185H265.338V366.6H261.338ZM315.391 415V417H317.391V415H315.391ZM271.831 415H269.831V417H271.831V415ZM271.831 398.06V396.06H269.831V398.06H271.831ZM282.721 398.06V400.06H284.721V398.06H282.721ZM282.721 347.24H284.721V345.24H282.721V347.24ZM271.831 347.24H269.831V349.24H271.831V347.24ZM271.831 330.3V328.3H269.831V330.3H271.831ZM315.391 330.3H317.391V328.3H315.391V330.3ZM315.391 347.24V349.24H317.391V347.24H315.391ZM304.501 347.24V345.24H302.501V347.24H304.501ZM304.501 398.06H302.501V400.06H304.501V398.06ZM315.391 398.06H317.391V396.06H315.391V398.06ZM315.391 413H271.831V417H315.391V413ZM273.831 415V398.06H269.831V415H273.831ZM271.831 400.06H282.721V396.06H271.831V400.06ZM284.721 398.06V347.24H280.721V398.06H284.721ZM282.721 345.24H271.831V349.24H282.721V345.24ZM273.831 347.24V330.3H269.831V347.24H273.831ZM271.831 332.3H315.391V328.3H271.831V332.3ZM313.391 330.3V347.24H317.391V330.3H313.391ZM315.391 345.24H304.501V349.24H315.391V345.24ZM302.501 347.24V398.06H306.501V347.24H302.501ZM304.501 400.06H315.391V396.06H304.501V400.06ZM313.391 398.06V415H317.391V398.06H313.391ZM326.272 330.3V328.3H324.272V330.3H326.272ZM395.484 336.108L394.055 337.507L394.07 337.522L394.085 337.537L395.484 336.108ZM395.484 385.113L396.898 386.527L396.898 386.527L395.484 385.113ZM348.052 390.8V388.8H346.052V390.8H348.052ZM348.052 415V417H350.052V415H348.052ZM326.272 415H324.272V417H326.272V415ZM348.052 347.24V345.24H346.052V347.24H348.052ZM348.052 373.86H346.052V375.86H348.052V373.86ZM326.272 332.3H377.092V328.3H326.272V332.3ZM377.092 332.3C385.319 332.3 390.805 334.189 394.055 337.507L396.913 334.709C392.58 330.283 385.804 328.3 377.092 328.3V332.3ZM394.085 337.537C397.403 340.786 399.292 346.273 399.292 354.5H403.292C403.292 345.787 401.309 339.012 396.883 334.679L394.085 337.537ZM399.292 354.5V366.6H403.292V354.5H399.292ZM399.292 366.6C399.292 374.823 397.405 380.363 394.07 383.699L396.898 386.527C401.307 382.119 403.292 375.317 403.292 366.6H399.292ZM394.07 383.699C390.821 386.947 385.329 388.8 377.092 388.8V392.8C385.795 392.8 392.564 390.862 396.898 386.527L394.07 383.699ZM377.092 388.8H348.052V392.8H377.092V388.8ZM346.052 390.8V415H350.052V390.8H346.052ZM348.052 413H326.272V417H348.052V413ZM328.272 415V330.3H324.272V415H328.272ZM381.512 354.5C381.512 351.772 380.828 349.358 379.111 347.641C377.394 345.923 374.98 345.24 372.252 345.24V349.24C374.364 349.24 375.58 349.767 376.283 350.469C376.985 351.172 377.512 352.388 377.512 354.5H381.512ZM372.252 345.24H348.052V349.24H372.252V345.24ZM346.052 347.24V373.86H350.052V347.24H346.052ZM348.052 375.86H372.252V371.86H348.052V375.86ZM372.252 375.86C374.98 375.86 377.394 375.177 379.111 373.459C380.828 371.742 381.512 369.328 381.512 366.6H377.512C377.512 368.712 376.985 369.928 376.283 370.631C375.58 371.333 374.364 371.86 372.252 371.86V375.86ZM381.512 366.6V354.5H377.512V366.6H381.512ZM582.716 330.3L584.649 329.785L584.253 328.3H582.716V330.3ZM597.236 384.75L595.304 385.265L599.184 385.204L597.236 384.75ZM609.941 330.3V328.3H608.354L607.994 329.846L609.941 330.3ZM633.536 330.3L635.466 330.824L636.151 328.3H633.536V330.3ZM610.546 415V417H612.076L612.476 415.524L610.546 415ZM587.556 415L585.628 415.532L586.033 417H587.556V415ZM573.036 362.365L574.964 361.833L573.036 354.844L571.108 361.833L573.036 362.365ZM558.516 415V417H560.039L560.444 415.532L558.516 415ZM535.526 415L533.596 415.524L533.997 417H535.526V415ZM512.536 330.3V328.3H509.921L510.606 330.824L512.536 330.3ZM536.131 330.3L538.079 329.846L537.718 328.3H536.131V330.3ZM548.836 384.75L546.889 385.204L550.769 385.265L548.836 384.75ZM563.356 330.3V328.3H561.82L561.424 329.785L563.356 330.3ZM580.784 330.815L595.304 385.265L599.169 384.235L584.649 329.785L580.784 330.815ZM599.184 385.204L611.889 330.754L607.994 329.846L595.289 384.296L599.184 385.204ZM609.941 332.3H633.536V328.3H609.941V332.3ZM631.606 329.776L608.616 414.476L612.476 415.524L635.466 330.824L631.606 329.776ZM610.546 413H587.556V417H610.546V413ZM589.484 414.468L574.964 361.833L571.108 362.897L585.628 415.532L589.484 414.468ZM571.108 361.833L556.588 414.468L560.444 415.532L574.964 362.897L571.108 361.833ZM558.516 413H535.526V417H558.516V413ZM537.456 414.476L514.466 329.776L510.606 330.824L533.596 415.524L537.456 414.476ZM512.536 332.3H536.131V328.3H512.536V332.3ZM534.184 330.754L546.889 385.204L550.784 384.296L538.079 329.846L534.184 330.754ZM550.769 385.265L565.289 330.815L561.424 329.785L546.904 384.235L550.769 385.265ZM563.356 332.3H582.716V328.3H563.356V332.3ZM706.798 415V417H708.798V415H706.798ZM639.643 415H637.643V417H639.643V415ZM639.643 330.3V328.3H637.643V330.3H639.643ZM706.798 330.3H708.798V328.3H706.798V330.3ZM706.798 347.24V349.24H708.798V347.24H706.798ZM661.423 347.24V345.24H659.423V347.24H661.423ZM661.423 363.575H659.423V365.575H661.423V363.575ZM697.118 363.575H699.118V361.575H697.118V363.575ZM697.118 380.515V382.515H699.118V380.515H697.118ZM661.423 380.515V378.515H659.423V380.515H661.423ZM661.423 398.06H659.423V400.06H661.423V398.06ZM706.798 398.06H708.798V396.06H706.798V398.06ZM706.798 413H639.643V417H706.798V413ZM641.643 415V330.3H637.643V415H641.643ZM639.643 332.3H706.798V328.3H639.643V332.3ZM704.798 330.3V347.24H708.798V330.3H704.798ZM706.798 345.24H661.423V349.24H706.798V345.24ZM659.423 347.24V363.575H663.423V347.24H659.423ZM661.423 365.575H697.118V361.575H661.423V365.575ZM695.118 363.575V380.515H699.118V363.575H695.118ZM697.118 378.515H661.423V382.515H697.118V378.515ZM659.423 380.515V398.06H663.423V380.515H659.423ZM661.423 400.06H706.798V396.06H661.423V400.06ZM704.798 398.06V415H708.798V398.06H704.798ZM716.45 330.3V328.3H714.45V330.3H716.45ZM785.662 336.108L784.233 337.507L784.247 337.522L784.262 337.537L785.662 336.108ZM788.082 380.999L786.373 379.959L786.365 379.973L786.357 379.987L788.082 380.999ZM777.555 388.38L777.07 386.44L774.515 387.078L775.816 389.368L777.555 388.38ZM792.68 415V417H796.116L794.418 414.012L792.68 415ZM769.085 415L767.33 415.961L767.9 417H769.085V415ZM755.17 389.59L756.924 388.629L756.355 387.59H755.17V389.59ZM738.23 389.59V387.59H736.23V389.59H738.23ZM738.23 415V417H740.23V415H738.23ZM716.45 415H714.45V417H716.45V415ZM738.23 347.24V345.24H736.23V347.24H738.23ZM738.23 372.65H736.23V374.65H738.23V372.65ZM716.45 332.3H767.27V328.3H716.45V332.3ZM767.27 332.3C775.497 332.3 780.983 334.189 784.233 337.507L787.091 334.709C782.757 330.283 775.982 328.3 767.27 328.3V332.3ZM784.262 337.537C787.581 340.786 789.47 346.273 789.47 354.5H793.47C793.47 345.787 791.486 339.012 787.061 334.679L784.262 337.537ZM789.47 354.5V365.39H793.47V354.5H789.47ZM789.47 365.39C789.47 371.901 788.364 376.688 786.373 379.959L789.79 382.039C792.316 377.889 793.47 372.269 793.47 365.39H789.47ZM786.357 379.987C784.494 383.16 781.479 385.337 777.07 386.44L778.04 390.32C783.311 389.003 787.313 386.26 789.806 382.011L786.357 379.987ZM775.816 389.368L790.941 415.988L794.418 414.012L779.293 387.392L775.816 389.368ZM792.68 413H769.085V417H792.68V413ZM770.839 414.039L756.924 388.629L753.415 390.551L767.33 415.961L770.839 414.039ZM755.17 387.59H738.23V391.59H755.17V387.59ZM736.23 389.59V415H740.23V389.59H736.23ZM738.23 413H716.45V417H738.23V413ZM718.45 415V330.3H714.45V415H718.45ZM771.69 354.5C771.69 351.772 771.006 349.358 769.289 347.641C767.571 345.923 765.158 345.24 762.43 345.24V349.24C764.541 349.24 765.758 349.767 766.46 350.469C767.163 351.172 767.69 352.388 767.69 354.5H771.69ZM762.43 345.24H738.23V349.24H762.43V345.24ZM736.23 347.24V372.65H740.23V347.24H736.23ZM738.23 374.65H762.43V370.65H738.23V374.65ZM762.43 374.65C765.158 374.65 767.571 373.967 769.289 372.249C771.006 370.532 771.69 368.118 771.69 365.39H767.69C767.69 367.502 767.163 368.718 766.46 369.421C765.758 370.123 764.541 370.65 762.43 370.65V374.65ZM771.69 365.39V354.5H767.69V365.39H771.69Z" fill="black"/>
</g>
<path d="M461.5 342.197C445.894 342.197 433.197 354.896 433.197 370.502C433.197 386.109 445.894 398.808 461.5 398.808C477.104 398.808 489.803 386.111 489.803 370.502C489.803 354.894 477.104 342.197 461.5 342.197Z" fill="#F85D5D"/>
<path d="M461.5 333.878C458.45 333.878 455.978 331.405 455.978 328.358V319.522C455.978 316.472 458.45 314 461.5 314C464.55 314 467.022 316.472 467.022 319.522V328.358C467.022 331.405 464.548 333.878 461.5 333.878Z" fill="#37A849"/>
<path d="M461.5 407.12C458.45 407.12 455.978 409.592 455.978 412.642V421.475C455.978 424.528 458.45 427 461.5 427C464.55 427 467.022 424.528 467.022 421.475V412.642C467.022 409.592 464.548 407.12 461.5 407.12Z" fill="#37A849"/>
<path d="M487.393 344.605C485.239 342.448 485.239 338.952 487.393 336.795L493.641 330.547C495.795 328.393 499.293 328.393 501.45 330.547C503.607 332.704 503.607 336.202 501.45 338.357L495.202 344.605C493.048 346.761 489.552 346.761 487.393 344.605Z" fill="#F85D5D"/>
<path d="M435.605 396.398C433.448 394.238 429.952 394.238 427.795 396.398L421.547 402.643C419.393 404.798 419.39 408.298 421.547 410.453C423.704 412.607 427.202 412.607 429.357 410.453L435.605 404.202C437.761 402.048 437.761 398.55 435.605 396.398Z" fill="#F85D5D"/>
<path d="M498.12 370.5C498.12 367.45 500.592 364.978 503.642 364.978H512.478C515.528 364.978 518 367.45 518 370.5C518 373.55 515.528 376.02 512.478 376.02H503.642C500.592 376.02 498.12 373.55 498.12 370.5Z" fill="#37A849"/>
<path d="M424.878 370.5C424.878 367.45 422.405 364.978 419.355 364.978H410.522C407.472 364.978 405 367.45 405 370.5C405 373.55 407.472 376.02 410.522 376.02H419.358C422.405 376.02 424.878 373.55 424.878 370.5Z" fill="#37A849"/>
<path d="M487.393 396.398C489.55 394.244 493.048 394.244 495.202 396.398L501.45 402.646C503.607 404.798 503.607 408.298 501.45 410.453C499.293 412.607 495.798 412.607 493.641 410.453L487.393 404.205C485.236 402.048 485.236 398.552 487.393 396.398Z" fill="#F85D5D"/>
<path d="M435.605 344.605C437.761 342.448 437.761 338.952 435.605 336.795L429.357 330.55C427.2 328.393 423.704 328.393 421.547 330.55C419.39 332.704 419.39 336.202 421.547 338.357L427.795 344.605C429.952 346.764 433.448 346.764 435.605 344.605Z" fill="#F85D5D"/>
<line x1="51.0241" y1="432" x2="799.024" y2="435" stroke="#1F2DA8" stroke-width="12"/>
<line x1="55.004" y1="441" x2="803.004" y2="444" stroke="#1F2DA8" stroke-width="2"/>
<line x1="75.0014" y1="449" x2="774.001" y2="450" stroke="#1F2DA8" stroke-width="2"/>
<line x1="91.0015" y1="458" x2="756.002" y2="459" stroke="#1F2DA8" stroke-width="2"/>
<g clip-path="url(#clip0)">
<path d="M202.099 190H169.098L155.902 260.188H169.125L157.882 320H161.843L200.116 249.809H180.727L202.099 190Z" fill="black"/>
<path d="M195.099 190H162.098L148.902 260.188H162.125L150.882 320H154.843L193.116 249.809H173.727L195.099 190Z" fill="#E82020"/>
</g>
<line x1="83.9917" y1="228.894" x2="310.992" y2="227" stroke="#1F2DA8" stroke-width="2"/>
<line x1="75.9917" y1="233.894" x2="302.992" y2="232" stroke="#1F2DA8" stroke-width="2"/>
<line x1="70.9917" y1="238.894" x2="297.992" y2="237" stroke="#1F2DA8" stroke-width="2"/>
<line x1="64.9917" y1="243.894" x2="291.992" y2="242" stroke="#1F2DA8" stroke-width="2"/>
<line x1="56.9917" y1="248.894" x2="283.992" y2="247" stroke="#1F2DA8" stroke-width="2"/>
<line x1="47.9917" y1="253.894" x2="274.992" y2="252" stroke="#1F2DA8" stroke-width="2"/>
<line x1="41.9917" y1="258.894" x2="268.992" y2="257" stroke="#1F2DA8" stroke-width="2"/>
<line x1="28.9917" y1="268.894" x2="255.992" y2="267" stroke="#1F2DA8" stroke-width="2"/>
<line x1="31.9917" y1="263.894" x2="258.992" y2="262" stroke="#1F2DA8" stroke-width="2"/>
<defs>
<filter id="filter0_d" x="44.8402" y="326.3" width="755.839" height="101.91" filterUnits="userSpaceOnUse" color-interpolation-filters="sRGB">
<feFlood flood-opacity="0" result="BackgroundImageFix"/>
<feColorMatrix in="SourceAlpha" type="matrix" values="0 0 0 0 0 0 0 0 0 0 0 0 0 0 0 0 0 0 127 0"/>
<feOffset dy="4"/>
<feGaussianBlur stdDeviation="4"/>
<feColorMatrix type="matrix" values="0 0 0 0 0 0 0 0 0 0 0 0 0 0 0 0 0 0 0.7 0"/>
<feBlend mode="normal" in2="BackgroundImageFix" result="effect1_dropShadow"/>
<feBlend mode="normal" in="SourceGraphic" in2="effect1_dropShadow" result="shape"/>
</filter>
<clipPath id="clip0">
<rect width="88" height="130" fill="white" transform="translate(135 190)"/>
</clipPath>
</defs>
</svg>
