<svg width="319" height="192" viewBox="0 0 319 192" fill="none" xmlns="http://www.w3.org/2000/svg">
<path d="M19.584 81.544H20.688C21.328 81.544 21.776 81.4 22.032 81.112C22.32 80.824 22.464 80.36 22.464 79.72V59.176C22.464 58.568 22.32 58.136 22.032 57.88C21.776 57.592 21.328 57.448 20.688 57.448H19.584V53.944H33.408C37.856 53.944 41.152 55.304 43.296 58.024C45.472 60.744 46.56 64.6 46.56 69.592C46.56 74.264 45.44 78.008 43.2 80.824C40.992 83.608 37.728 85 33.408 85H19.584V81.544ZM32.736 81.544C35.872 81.544 38.128 80.552 39.504 78.568C40.88 76.584 41.568 73.592 41.568 69.592C41.568 65.496 40.88 62.44 39.504 60.424C38.128 58.408 35.872 57.4 32.736 57.4H27.552V81.544H32.736ZM52.2686 53.896H57.6926V58.312H52.2686V53.896ZM49.2446 81.448H50.6366C51.2766 81.448 51.7246 81.304 51.9806 81.016C52.2686 80.728 52.4126 80.264 52.4126 79.624V67.288C52.4126 66.68 52.2686 66.248 51.9806 65.992C51.7246 65.704 51.2766 65.56 50.6366 65.56H49.2446V61.96H57.5486V79.672C57.5486 80.28 57.6926 80.728 57.9806 81.016C58.2686 81.304 58.7166 81.448 59.3246 81.448H60.7166V85H49.2446V81.448ZM76.6121 94.6C72.8041 94.6 69.7321 93.48 67.3961 91.24V87.928H71.8121V89.656C72.4201 90.104 73.0601 90.408 73.7321 90.568C74.4361 90.76 75.2841 90.856 76.2761 90.856C79.6041 90.856 81.2681 89.176 81.2681 85.816V81.976C80.4041 83.16 79.3481 84.024 78.1001 84.568C76.8521 85.112 75.3641 85.384 73.6361 85.384C70.3721 85.384 67.8441 84.344 66.0521 82.264C64.2921 80.184 63.4121 77.16 63.4121 73.192C63.4121 69.384 64.3401 66.44 66.1961 64.36C68.0841 62.28 70.6281 61.24 73.8281 61.24C75.6841 61.24 77.2521 61.576 78.5321 62.248C79.8121 62.888 80.9321 63.928 81.8921 65.368L82.3241 61.912H88.7561V65.224H87.7481C87.1721 65.224 86.7721 65.384 86.5481 65.704C86.3241 65.992 86.2121 66.488 86.2121 67.192V85.048C86.2121 87.928 85.3321 90.232 83.5721 91.96C81.8441 93.72 79.5241 94.6 76.6121 94.6ZM74.8361 81.64C76.8841 81.64 78.4361 81.048 79.4921 79.864C80.5801 78.648 81.1241 76.872 81.1241 74.536V72.328C81.1241 70.056 80.5801 68.264 79.4921 66.952C78.4041 65.608 76.8361 64.936 74.7881 64.936C72.5481 64.936 70.9161 65.592 69.8921 66.904C68.9001 68.184 68.4041 70.28 68.4041 73.192C68.4041 76.232 68.9001 78.408 69.8921 79.72C70.8841 81 72.5321 81.64 74.8361 81.64ZM93.9874 53.896H99.4114V58.312H93.9874V53.896ZM90.9634 81.448H92.3554C92.9954 81.448 93.4434 81.304 93.6994 81.016C93.9874 80.728 94.1314 80.264 94.1314 79.624V67.288C94.1314 66.68 93.9874 66.248 93.6994 65.992C93.4434 65.704 92.9954 65.56 92.3554 65.56H90.9634V61.96H99.2674V79.672C99.2674 80.28 99.4114 80.728 99.6994 81.016C99.9874 81.304 100.435 81.448 101.043 81.448H102.435V85H90.9634V81.448ZM115.192 85.72C112.536 85.72 110.536 85.064 109.192 83.752C107.848 82.44 107.176 80.52 107.176 77.992V65.416H103.432V61.96H107.176V56.776L112.264 55.144V61.96H119.176V65.416H112.264V78.328C112.264 79.736 112.52 80.744 113.032 81.352C113.576 81.96 114.392 82.264 115.48 82.264C116.888 82.264 117.96 81.96 118.696 81.352V79.288H123.064V82.936C122.008 83.832 120.856 84.52 119.608 85C118.36 85.48 116.888 85.72 115.192 85.72ZM132.116 85.72C129.556 85.72 127.604 85.16 126.26 84.04C124.948 82.92 124.292 81.336 124.292 79.288C124.292 76.984 125.012 75.304 126.452 74.248C127.924 73.16 130.036 72.52 132.788 72.328L139.508 71.896V68.968C139.508 67.464 139.188 66.376 138.548 65.704C137.908 65.032 136.82 64.696 135.284 64.696C134.228 64.696 133.348 64.792 132.644 64.984C131.972 65.144 131.348 65.416 130.772 65.8V67.528H126.308V63.736C128.996 62.072 132.02 61.24 135.38 61.24C141.524 61.24 144.596 63.96 144.596 69.4V79.912C144.596 80.552 144.708 81.016 144.932 81.304C145.188 81.592 145.588 81.736 146.132 81.736H147.188V85H141.668L141.044 81.976C140.02 83.288 138.82 84.248 137.444 84.856C136.1 85.432 134.324 85.72 132.116 85.72ZM133.268 82.264C135.188 82.264 136.708 81.848 137.828 81.016C138.948 80.184 139.508 78.92 139.508 77.224V74.92L133.172 75.4C131.604 75.496 130.516 75.832 129.908 76.408C129.3 76.952 128.996 77.832 128.996 79.048C128.996 80.104 129.332 80.904 130.004 81.448C130.676 81.992 131.764 82.264 133.268 82.264ZM149.896 81.448H151.289C151.929 81.448 152.377 81.304 152.633 81.016C152.921 80.728 153.065 80.264 153.065 79.624V58.552C153.065 57.944 152.921 57.512 152.633 57.256C152.377 56.968 151.929 56.824 151.289 56.824H149.896V53.224H158.201V79.672C158.201 80.28 158.345 80.728 158.633 81.016C158.921 81.304 159.369 81.448 159.977 81.448H161.369V85H149.896V81.448Z" fill="#057DEC"/>
<path d="M19.584 81.544V80.544H18.584V81.544H19.584ZM22.032 81.112L21.3249 80.4049L21.3041 80.4257L21.2846 80.4476L22.032 81.112ZM22.032 57.88L21.2846 58.5444L21.3237 58.5883L21.3676 58.6274L22.032 57.88ZM19.584 57.448H18.584V58.448H19.584V57.448ZM19.584 53.944V52.944H18.584V53.944H19.584ZM43.296 58.024L42.5106 58.6431L42.5151 58.6487L43.296 58.024ZM43.2 80.824L42.4174 80.2015L42.4165 80.2026L43.2 80.824ZM19.584 85H18.584V86H19.584V85ZM39.504 78.568L38.6823 77.9981L38.6823 77.9981L39.504 78.568ZM39.504 60.424L38.6781 60.9877L38.6781 60.9877L39.504 60.424ZM27.552 57.4V56.4H26.552V57.4H27.552ZM27.552 81.544H26.552V82.544H27.552V81.544ZM19.584 82.544H20.688V80.544H19.584V82.544ZM20.688 82.544C21.4316 82.544 22.2393 82.384 22.7794 81.7764L21.2846 80.4476C21.2991 80.4313 21.2893 80.4546 21.198 80.484C21.1013 80.5151 20.9389 80.544 20.688 80.544V82.544ZM22.7391 81.8191C23.2978 81.2604 23.464 80.4783 23.464 79.72H21.464C21.464 80.2417 21.3422 80.3876 21.3249 80.4049L22.7391 81.8191ZM23.464 79.72V59.176H21.464V79.72H23.464ZM23.464 59.176C23.464 58.4451 23.295 57.6647 22.6964 57.1326L21.3676 58.6274C21.345 58.6073 21.464 58.6909 21.464 59.176H23.464ZM22.7794 57.2156C22.2393 56.608 21.4316 56.448 20.688 56.448V58.448C20.9389 58.448 21.1013 58.4769 21.198 58.508C21.2893 58.5374 21.2991 58.5607 21.2846 58.5444L22.7794 57.2156ZM20.688 56.448H19.584V58.448H20.688V56.448ZM20.584 57.448V53.944H18.584V57.448H20.584ZM19.584 54.944H33.408V52.944H19.584V54.944ZM33.408 54.944C37.6445 54.944 40.6081 56.2294 42.5106 58.643L44.0814 57.405C41.6959 54.3786 38.0675 52.944 33.408 52.944V54.944ZM42.5151 58.6487C44.4992 61.1287 45.56 64.7312 45.56 69.592H47.56C47.56 64.4688 46.4448 60.3593 44.0769 57.3993L42.5151 58.6487ZM45.56 69.592C45.56 74.106 44.4794 77.6093 42.4174 80.2015L43.9826 81.4465C46.4006 78.4067 47.56 74.422 47.56 69.592H45.56ZM42.4165 80.2026C40.4393 82.6955 37.4957 84 33.408 84V86C37.9603 86 41.5447 84.5205 43.9835 81.4454L42.4165 80.2026ZM33.408 84H19.584V86H33.408V84ZM20.584 85V81.544H18.584V85H20.584ZM32.736 82.544C36.0911 82.544 38.7084 81.4698 40.3257 79.1379L38.6823 77.9981C37.5476 79.6342 35.6529 80.544 32.736 80.544V82.544ZM40.3257 79.1379C41.8716 76.9089 42.568 73.6747 42.568 69.592H40.568C40.568 73.5093 39.8884 76.2591 38.6823 77.9981L40.3257 79.1379ZM42.568 69.592C42.568 65.4174 41.8729 62.1209 40.33 59.8603L38.6781 60.9877C39.8871 62.7591 40.568 65.5746 40.568 69.592H42.568ZM40.33 59.8603C38.7153 57.4946 36.0973 56.4 32.736 56.4V58.4C35.6467 58.4 37.5407 59.3214 38.6781 60.9877L40.33 59.8603ZM32.736 56.4H27.552V58.4H32.736V56.4ZM26.552 57.4V81.544H28.552V57.4H26.552ZM27.552 82.544H32.736V80.544H27.552V82.544ZM52.2686 53.896V52.896H51.2686V53.896H52.2686ZM57.6926 53.896H58.6926V52.896H57.6926V53.896ZM57.6926 58.312V59.312H58.6926V58.312H57.6926ZM52.2686 58.312H51.2686V59.312H52.2686V58.312ZM49.2446 81.448V80.448H48.2446V81.448H49.2446ZM51.9806 81.016L51.2735 80.3089L51.2527 80.3297L51.2332 80.3516L51.9806 81.016ZM51.9806 65.992L51.2332 66.6564L51.2723 66.7003L51.3163 66.7394L51.9806 65.992ZM49.2446 65.56H48.2446V66.56H49.2446V65.56ZM49.2446 61.96V60.96H48.2446V61.96H49.2446ZM57.5486 61.96H58.5486V60.96H57.5486V61.96ZM60.7166 81.448H61.7166V80.448H60.7166V81.448ZM60.7166 85V86H61.7166V85H60.7166ZM49.2446 85H48.2446V86H49.2446V85ZM52.2686 54.896H57.6926V52.896H52.2686V54.896ZM56.6926 53.896V58.312H58.6926V53.896H56.6926ZM57.6926 57.312H52.2686V59.312H57.6926V57.312ZM53.2686 58.312V53.896H51.2686V58.312H53.2686ZM49.2446 82.448H50.6366V80.448H49.2446V82.448ZM50.6366 82.448C51.3802 82.448 52.188 82.288 52.728 81.6804L51.2332 80.3516C51.2477 80.3353 51.238 80.3586 51.1466 80.388C51.0499 80.4191 50.8875 80.448 50.6366 80.448V82.448ZM52.6877 81.7231C53.2464 81.1644 53.4126 80.3823 53.4126 79.624H51.4126C51.4126 80.1457 51.2908 80.2916 51.2735 80.3089L52.6877 81.7231ZM53.4126 79.624V67.288H51.4126V79.624H53.4126ZM53.4126 67.288C53.4126 66.5571 53.2437 65.7767 52.645 65.2446L51.3163 66.7394C51.2936 66.7193 51.4126 66.8029 51.4126 67.288H53.4126ZM52.728 65.3276C52.188 64.72 51.3802 64.56 50.6366 64.56V66.56C50.8875 66.56 51.0499 66.5889 51.1466 66.62C51.238 66.6494 51.2477 66.6727 51.2332 66.6564L52.728 65.3276ZM50.6366 64.56H49.2446V66.56H50.6366V64.56ZM50.2446 65.56V61.96H48.2446V65.56H50.2446ZM49.2446 62.96H57.5486V60.96H49.2446V62.96ZM56.5486 61.96V79.672H58.5486V61.96H56.5486ZM56.5486 79.672C56.5486 80.4158 56.7229 81.1725 57.2735 81.7231L58.6877 80.3089C58.6623 80.2835 58.5486 80.1442 58.5486 79.672H56.5486ZM57.2735 81.7231C57.8241 82.2737 58.5808 82.448 59.3246 82.448V80.448C58.8524 80.448 58.7131 80.3343 58.6877 80.3089L57.2735 81.7231ZM59.3246 82.448H60.7166V80.448H59.3246V82.448ZM59.7166 81.448V85H61.7166V81.448H59.7166ZM60.7166 84H49.2446V86H60.7166V84ZM50.2446 85V81.448H48.2446V85H50.2446ZM67.3961 91.24H66.3961V91.6666L66.704 91.9618L67.3961 91.24ZM67.3961 87.928V86.928H66.3961V87.928H67.3961ZM71.8121 87.928H72.8121V86.928H71.8121V87.928ZM71.8121 89.656H70.8121V90.1613L71.2189 90.4611L71.8121 89.656ZM73.7321 90.568L73.9952 89.6032L73.9796 89.599L73.9637 89.5952L73.7321 90.568ZM81.2681 81.976H82.2681V78.9092L80.4603 81.3865L81.2681 81.976ZM78.1001 84.568L77.7005 83.6513L77.7005 83.6513L78.1001 84.568ZM66.0521 82.264L65.2887 82.91L65.2945 82.9167L66.0521 82.264ZM66.1961 64.36L65.4556 63.6879L65.45 63.6942L66.1961 64.36ZM78.5321 62.248L78.0673 63.1334L78.0761 63.138L78.0849 63.1424L78.5321 62.248ZM81.8921 65.368L81.0601 65.9227L82.551 68.1591L82.8844 65.492L81.8921 65.368ZM82.3241 61.912V60.912H81.4413L81.3318 61.788L82.3241 61.912ZM88.7561 61.912H89.7561V60.912H88.7561V61.912ZM88.7561 65.224V66.224H89.7561V65.224H88.7561ZM86.5481 65.704L87.3375 66.3179L87.3529 66.2981L87.3674 66.2775L86.5481 65.704ZM83.5721 91.96L82.8715 91.2464L82.865 91.2529L82.8586 91.2594L83.5721 91.96ZM79.4921 79.864L78.7469 79.1972L78.7458 79.1984L79.4921 79.864ZM79.4921 66.952L78.7148 67.5812L78.7224 67.5903L79.4921 66.952ZM69.8921 66.904L69.1038 66.2887L69.1017 66.2914L69.8921 66.904ZM69.8921 79.72L69.0944 80.3232L69.1017 80.3326L69.8921 79.72ZM76.6121 93.6C73.0133 93.6 70.2056 92.5486 68.0882 90.5182L66.704 91.9618C69.2586 94.4114 72.5949 95.6 76.6121 95.6V93.6ZM68.3961 91.24V87.928H66.3961V91.24H68.3961ZM67.3961 88.928H71.8121V86.928H67.3961V88.928ZM70.8121 87.928V89.656H72.8121V87.928H70.8121ZM71.2189 90.4611C71.9248 90.9812 72.6862 91.3469 73.5005 91.5408L73.9637 89.5952C73.434 89.4691 72.9154 89.2268 72.4053 88.8509L71.2189 90.4611ZM73.469 91.5328C74.2832 91.7548 75.2248 91.856 76.2761 91.856V89.856C75.3435 89.856 74.589 89.7652 73.9952 89.6032L73.469 91.5328ZM76.2761 91.856C78.0967 91.856 79.6453 91.3955 80.7306 90.2997C81.8142 89.2057 82.2681 87.6477 82.2681 85.816H80.2681C80.2681 87.3443 79.8901 88.3063 79.3096 88.8923C78.731 89.4765 77.7835 89.856 76.2761 89.856V91.856ZM82.2681 85.816V81.976H80.2681V85.816H82.2681ZM80.4603 81.3865C79.6927 82.4385 78.7734 83.1836 77.7005 83.6513L78.4997 85.4847C79.9228 84.8644 81.1156 83.8815 82.0759 82.5655L80.4603 81.3865ZM77.7005 83.6513C76.6076 84.1277 75.2623 84.384 73.6361 84.384V86.384C75.466 86.384 77.0966 86.0963 78.4997 85.4847L77.7005 83.6513ZM73.6361 84.384C70.6027 84.384 68.3756 83.4288 66.8097 81.6113L65.2945 82.9167C67.3127 85.2592 70.1416 86.384 73.6361 86.384V84.384ZM66.8155 81.6181C65.2648 79.7854 64.4121 77.0288 64.4121 73.192H62.4121C62.4121 77.2912 63.3195 80.5826 65.2887 82.9099L66.8155 81.6181ZM64.4121 73.192C64.4121 69.5391 65.3014 66.8647 66.9423 65.0258L65.45 63.6942C63.3789 66.0153 62.4121 69.2289 62.4121 73.192H64.4121ZM66.9366 65.0321C68.6077 63.191 70.8668 62.24 73.8281 62.24V60.24C70.3895 60.24 67.5605 61.369 65.4557 63.6879L66.9366 65.0321ZM73.8281 62.24C75.5669 62.24 76.9656 62.555 78.0673 63.1334L78.997 61.3626C77.5387 60.597 75.8014 60.24 73.8281 60.24V62.24ZM78.0849 63.1424C79.1797 63.6898 80.1764 64.5973 81.0601 65.9227L82.7242 64.8133C81.6878 63.2587 80.4446 62.0862 78.9793 61.3536L78.0849 63.1424ZM82.8844 65.492L83.3164 62.036L81.3318 61.788L80.8998 65.244L82.8844 65.492ZM82.3241 62.912H88.7561V60.912H82.3241V62.912ZM87.7561 61.912V65.224H89.7561V61.912H87.7561ZM88.7561 64.224H87.7481V66.224H88.7561V64.224ZM87.7481 64.224C87.0095 64.224 86.2175 64.4325 85.7289 65.1305L87.3674 66.2775C87.3564 66.2931 87.3488 66.2879 87.3875 66.2725C87.4369 66.2527 87.5469 66.224 87.7481 66.224V64.224ZM85.7588 65.0901C85.3194 65.655 85.2121 66.4423 85.2121 67.192H87.2121C87.2121 66.888 87.2368 66.6663 87.2716 66.5123C87.3071 66.3547 87.3439 66.3097 87.3375 66.3179L85.7588 65.0901ZM85.2121 67.192V85.048H87.2121V67.192H85.2121ZM85.2121 85.048C85.2121 87.7083 84.4078 89.7381 82.8715 91.2464L84.2727 92.6736C86.2564 90.7259 87.2121 88.1477 87.2121 85.048H85.2121ZM82.8586 91.2594C81.3523 92.7935 79.308 93.6 76.6121 93.6V95.6C79.7402 95.6 82.3359 94.6465 84.2857 92.6606L82.8586 91.2594ZM74.8361 82.64C77.0809 82.64 78.941 81.9844 80.2384 80.5296L78.7458 79.1984C77.9313 80.1116 76.6873 80.64 74.8361 80.64V82.64ZM80.2374 80.5308C81.5481 79.0658 82.1241 77.0129 82.1241 74.536H80.1241C80.1241 76.7311 79.6121 78.2302 78.7469 79.1972L80.2374 80.5308ZM82.1241 74.536V72.328H80.1241V74.536H82.1241ZM82.1241 72.328C82.1241 69.901 81.5419 67.8572 80.2619 66.3137L78.7224 67.5903C79.6184 68.6708 80.1241 70.211 80.1241 72.328H82.1241ZM80.2694 66.3228C78.9557 64.7 77.0759 63.936 74.7881 63.936V65.936C76.5963 65.936 77.8526 66.516 78.7149 67.5812L80.2694 66.3228ZM74.7881 63.936C72.3545 63.936 70.378 64.6562 69.1038 66.2887L70.6804 67.5193C71.4542 66.5278 72.7418 65.936 74.7881 65.936V63.936ZM69.1017 66.2914C67.9019 67.8395 67.4041 70.2146 67.4041 73.192H69.4041C69.4041 70.3454 69.8983 68.5285 70.6825 67.5166L69.1017 66.2914ZM67.4041 73.192C67.4041 76.2891 67.8994 78.7425 69.0945 80.3231L70.6898 79.1169C69.9009 78.0735 69.4041 76.1749 69.4041 73.192H67.4041ZM69.1017 80.3326C70.3539 81.9483 72.3605 82.64 74.8361 82.64V80.64C72.7038 80.64 71.4144 80.0517 70.6825 79.1074L69.1017 80.3326ZM93.9874 53.896V52.896H92.9874V53.896H93.9874ZM99.4114 53.896H100.411V52.896H99.4114V53.896ZM99.4114 58.312V59.312H100.411V58.312H99.4114ZM93.9874 58.312H92.9874V59.312H93.9874V58.312ZM90.9634 81.448V80.448H89.9634V81.448H90.9634ZM93.6994 81.016L92.9923 80.3089L92.9715 80.3297L92.952 80.3516L93.6994 81.016ZM93.6994 65.992L92.952 66.6564L92.991 66.7003L93.035 66.7394L93.6994 65.992ZM90.9634 65.56H89.9634V66.56H90.9634V65.56ZM90.9634 61.96V60.96H89.9634V61.96H90.9634ZM99.2674 61.96H100.267V60.96H99.2674V61.96ZM102.435 81.448H103.435V80.448H102.435V81.448ZM102.435 85V86H103.435V85H102.435ZM90.9634 85H89.9634V86H90.9634V85ZM93.9874 54.896H99.4114V52.896H93.9874V54.896ZM98.4114 53.896V58.312H100.411V53.896H98.4114ZM99.4114 57.312H93.9874V59.312H99.4114V57.312ZM94.9874 58.312V53.896H92.9874V58.312H94.9874ZM90.9634 82.448H92.3554V80.448H90.9634V82.448ZM92.3554 82.448C93.0989 82.448 93.9067 82.288 94.4468 81.6804L92.952 80.3516C92.9665 80.3353 92.9567 80.3586 92.8654 80.388C92.7686 80.4191 92.6062 80.448 92.3554 80.448V82.448ZM94.4065 81.7231C94.9652 81.1644 95.1314 80.3823 95.1314 79.624H93.1314C93.1314 80.1457 93.0096 80.2916 92.9923 80.3089L94.4065 81.7231ZM95.1314 79.624V67.288H93.1314V79.624H95.1314ZM95.1314 67.288C95.1314 66.5571 94.9624 65.7767 94.3637 65.2446L93.035 66.7394C93.0123 66.7193 93.1314 66.8029 93.1314 67.288H95.1314ZM94.4468 65.3276C93.9067 64.72 93.0989 64.56 92.3554 64.56V66.56C92.6062 66.56 92.7686 66.5889 92.8654 66.62C92.9567 66.6494 92.9665 66.6727 92.952 66.6564L94.4468 65.3276ZM92.3554 64.56H90.9634V66.56H92.3554V64.56ZM91.9634 65.56V61.96H89.9634V65.56H91.9634ZM90.9634 62.96H99.2674V60.96H90.9634V62.96ZM98.2674 61.96V79.672H100.267V61.96H98.2674ZM98.2674 79.672C98.2674 80.4158 98.4417 81.1725 98.9923 81.7231L100.406 80.3089C100.381 80.2835 100.267 80.1442 100.267 79.672H98.2674ZM98.9923 81.7231C99.5429 82.2737 100.3 82.448 101.043 82.448V80.448C100.571 80.448 100.432 80.3343 100.406 80.3089L98.9923 81.7231ZM101.043 82.448H102.435V80.448H101.043V82.448ZM101.435 81.448V85H103.435V81.448H101.435ZM102.435 84H90.9634V86H102.435V84ZM91.9634 85V81.448H89.9634V85H91.9634ZM109.192 83.752L109.891 83.0364L109.891 83.0364L109.192 83.752ZM107.176 65.416H108.176V64.416H107.176V65.416ZM103.432 65.416H102.432V66.416H103.432V65.416ZM103.432 61.96V60.96H102.432V61.96H103.432ZM107.176 61.96V62.96H108.176V61.96H107.176ZM107.176 56.776L106.871 55.8238L106.176 56.0466V56.776H107.176ZM112.264 55.144H113.264V53.7731L111.959 54.1918L112.264 55.144ZM112.264 61.96H111.264V62.96H112.264V61.96ZM119.176 61.96H120.176V60.96H119.176V61.96ZM119.176 65.416V66.416H120.176V65.416H119.176ZM112.264 65.416V64.416H111.264V65.416H112.264ZM113.032 81.352L112.267 81.9961L112.277 82.0076L112.287 82.0188L113.032 81.352ZM118.696 81.352L119.333 82.123L119.696 81.823V81.352H118.696ZM118.696 79.288V78.288H117.696V79.288H118.696ZM123.064 79.288H124.064V78.288H123.064V79.288ZM123.064 82.936L123.711 83.6985L124.064 83.399V82.936H123.064ZM115.192 84.72C112.688 84.72 110.982 84.102 109.891 83.0364L108.494 84.4676C110.09 86.026 112.384 86.72 115.192 86.72V84.72ZM109.891 83.0364C108.799 81.9707 108.176 80.3469 108.176 77.992H106.176C106.176 80.6931 106.897 82.9093 108.494 84.4676L109.891 83.0364ZM108.176 77.992V65.416H106.176V77.992H108.176ZM107.176 64.416H103.432V66.416H107.176V64.416ZM104.432 65.416V61.96H102.432V65.416H104.432ZM103.432 62.96H107.176V60.96H103.432V62.96ZM108.176 61.96V56.776H106.176V61.96H108.176ZM107.482 57.7282L112.57 56.0962L111.959 54.1918L106.871 55.8238L107.482 57.7282ZM111.264 55.144V61.96H113.264V55.144H111.264ZM112.264 62.96H119.176V60.96H112.264V62.96ZM118.176 61.96V65.416H120.176V61.96H118.176ZM119.176 64.416H112.264V66.416H119.176V64.416ZM111.264 65.416V78.328H113.264V65.416H111.264ZM111.264 78.328C111.264 79.8084 111.524 81.1133 112.267 81.9961L113.797 80.7079C113.516 80.3747 113.264 79.6636 113.264 78.328H111.264ZM112.287 82.0188C113.078 82.9033 114.207 83.264 115.48 83.264V81.264C114.577 81.264 114.074 81.0167 113.777 80.6852L112.287 82.0188ZM115.48 83.264C117.014 83.264 118.35 82.9352 119.333 82.123L118.059 80.581C117.57 80.9848 116.763 81.264 115.48 81.264V83.264ZM119.696 81.352V79.288H117.696V81.352H119.696ZM118.696 80.288H123.064V78.288H118.696V80.288ZM122.064 79.288V82.936H124.064V79.288H122.064ZM122.417 82.1735C121.444 82.9994 120.388 83.6284 119.249 84.0667L119.967 85.9333C121.324 85.4116 122.572 84.6646 123.711 83.6985L122.417 82.1735ZM119.249 84.0667C118.142 84.4925 116.797 84.72 115.192 84.72V86.72C116.979 86.72 118.578 86.4675 119.967 85.9333L119.249 84.0667ZM126.26 84.04L125.61 84.8006L125.619 84.8082L126.26 84.04ZM126.452 74.248L127.043 75.0544L127.046 75.0522L126.452 74.248ZM132.788 72.328L132.723 71.33L132.718 71.3304L132.788 72.328ZM139.508 71.896L139.572 72.8939L140.508 72.8338V71.896H139.508ZM138.548 65.704L139.272 65.0143L139.272 65.0143L138.548 65.704ZM132.644 64.984L132.875 65.9568L132.891 65.953L132.907 65.9488L132.644 64.984ZM130.772 65.8L130.217 64.9679L129.772 65.2648V65.8H130.772ZM130.772 67.528V68.528H131.772V67.528H130.772ZM126.308 67.528H125.308V68.528H126.308V67.528ZM126.308 63.736L125.781 62.8857L125.308 63.1789V63.736H126.308ZM144.932 81.304L144.142 81.9179L144.162 81.9438L144.184 81.9684L144.932 81.304ZM147.188 81.736H148.188V80.736H147.188V81.736ZM147.188 85V86H148.188V85H147.188ZM141.668 85L140.688 85.2021L140.853 86H141.668V85ZM141.044 81.976L142.023 81.7739L141.586 79.6559L140.255 81.3607L141.044 81.976ZM137.444 84.856L137.837 85.7752L137.848 85.7707L137.444 84.856ZM139.508 74.92H140.508V73.8414L139.432 73.9229L139.508 74.92ZM133.172 75.4L133.233 76.3981L133.24 76.3977L133.247 76.3971L133.172 75.4ZM129.908 76.408L130.574 77.1532L130.585 77.1437L130.595 77.134L129.908 76.408ZM130.004 81.448L129.374 82.2252L129.374 82.2252L130.004 81.448ZM132.116 84.72C129.684 84.72 127.997 84.1861 126.9 83.2718L125.619 84.8082C127.21 86.1339 129.427 86.72 132.116 86.72V84.72ZM126.909 83.2794C125.861 82.3854 125.292 81.1038 125.292 79.288H123.292C123.292 81.5682 124.034 83.4546 125.61 84.8006L126.909 83.2794ZM125.292 79.288C125.292 77.2007 125.932 75.869 127.043 75.0544L125.86 73.4416C124.091 74.739 123.292 76.7673 123.292 79.288H125.292ZM127.046 75.0522C128.306 74.1209 130.205 73.5106 132.857 73.3256L132.718 71.3304C129.866 71.5294 127.541 72.1991 125.857 73.4438L127.046 75.0522ZM132.852 73.3259L139.572 72.8939L139.443 70.8981L132.723 71.3301L132.852 73.3259ZM140.508 71.896V68.968H138.508V71.896H140.508ZM140.508 68.968C140.508 67.3587 140.171 65.9588 139.272 65.0143L137.823 66.3937C138.204 66.7932 138.508 67.5693 138.508 68.968H140.508ZM139.272 65.0143C138.351 64.0473 136.922 63.696 135.284 63.696V65.696C136.717 65.696 137.464 66.0167 137.823 66.3937L139.272 65.0143ZM135.284 63.696C134.175 63.696 133.199 63.796 132.38 64.0192L132.907 65.9488C133.496 65.788 134.28 65.696 135.284 65.696V63.696ZM132.412 64.0112C131.624 64.1987 130.891 64.5184 130.217 64.9679L131.326 66.632C131.804 66.3136 132.319 66.0893 132.875 65.9568L132.412 64.0112ZM129.772 65.8V67.528H131.772V65.8H129.772ZM130.772 66.528H126.308V68.528H130.772V66.528ZM127.308 67.528V63.736H125.308V67.528H127.308ZM126.834 64.5863C129.354 63.0264 132.193 62.24 135.38 62.24V60.24C131.846 60.24 128.637 61.1176 125.781 62.8857L126.834 64.5863ZM135.38 62.24C138.325 62.24 140.348 62.8947 141.629 64.0287C142.886 65.1421 143.596 66.8678 143.596 69.4H145.596C145.596 66.4922 144.769 64.1378 142.954 62.5313C141.163 60.9453 138.578 60.24 135.38 60.24V62.24ZM143.596 69.4V79.912H145.596V69.4H143.596ZM143.596 79.912C143.596 80.6245 143.712 81.3645 144.142 81.9179L145.721 80.6901C145.703 80.6675 145.596 80.4795 145.596 79.912H143.596ZM144.184 81.9684C144.698 82.5462 145.423 82.736 146.132 82.736V80.736C145.944 80.736 145.828 80.7108 145.762 80.6871C145.703 80.6657 145.685 80.6462 145.679 80.6396L144.184 81.9684ZM146.132 82.736H147.188V80.736H146.132V82.736ZM146.188 81.736V85H148.188V81.736H146.188ZM147.188 84H141.668V86H147.188V84ZM142.647 84.7979L142.023 81.7739L140.064 82.1781L140.688 85.2021L142.647 84.7979ZM140.255 81.3607C139.322 82.5569 138.249 83.4068 137.039 83.9413L137.848 85.7707C139.39 85.0892 140.717 84.0191 141.832 82.5913L140.255 81.3607ZM137.05 83.9369C135.877 84.4394 134.251 84.72 132.116 84.72V86.72C134.396 86.72 136.322 86.4246 137.837 85.7751L137.05 83.9369ZM133.268 83.264C135.323 83.264 137.077 82.8192 138.424 81.8187L137.231 80.2133C136.338 80.8768 135.052 81.264 133.268 81.264V83.264ZM138.424 81.8187C139.853 80.7567 140.508 79.1599 140.508 77.224H138.508C138.508 78.6801 138.042 79.6113 137.231 80.2133L138.424 81.8187ZM140.508 77.224V74.92H138.508V77.224H140.508ZM139.432 73.9229L133.096 74.4029L133.247 76.3971L139.583 75.9171L139.432 73.9229ZM133.11 74.4019C131.487 74.5012 130.094 74.8535 129.22 75.682L130.595 77.134C130.937 76.8105 131.72 76.4908 133.233 76.3981L133.11 74.4019ZM129.241 75.6628C128.335 76.4735 127.996 77.6882 127.996 79.048H129.996C129.996 77.9758 130.264 77.4305 130.574 77.1532L129.241 75.6628ZM127.996 79.048C127.996 80.3321 128.416 81.4494 129.374 82.2252L130.633 80.6708C130.247 80.3586 129.996 79.8759 129.996 79.048H127.996ZM129.374 82.2252C130.315 82.9866 131.687 83.264 133.268 83.264V81.264C131.84 81.264 131.036 80.9974 130.633 80.6708L129.374 82.2252ZM149.896 81.448V80.448H148.896V81.448H149.896ZM152.633 81.016L151.925 80.3089L151.905 80.3297L151.885 80.3516L152.633 81.016ZM152.633 57.256L151.885 57.9204L151.924 57.9643L151.968 58.0034L152.633 57.256ZM149.896 56.824H148.896V57.824H149.896V56.824ZM149.896 53.224V52.224H148.896V53.224H149.896ZM158.201 53.224H159.201V52.224H158.201V53.224ZM158.633 81.016L157.925 81.7231L157.925 81.7231L158.633 81.016ZM161.369 81.448H162.369V80.448H161.369V81.448ZM161.369 85V86H162.369V85H161.369ZM149.896 85H148.896V86H149.896V85ZM149.896 82.448H151.289V80.448H149.896V82.448ZM151.289 82.448C152.032 82.448 152.84 82.288 153.38 81.6804L151.885 80.3516C151.9 80.3353 151.89 80.3586 151.798 80.388C151.702 80.4191 151.539 80.448 151.289 80.448V82.448ZM153.34 81.7231C153.898 81.1644 154.065 80.3823 154.065 79.624H152.065C152.065 80.1457 151.943 80.2916 151.925 80.3089L153.34 81.7231ZM154.065 79.624V58.552H152.065V79.624H154.065ZM154.065 58.552C154.065 57.8211 153.896 57.0407 153.297 56.5086L151.968 58.0034C151.945 57.9833 152.065 58.0669 152.065 58.552H154.065ZM153.38 56.5916C152.84 55.984 152.032 55.824 151.289 55.824V57.824C151.539 57.824 151.702 57.8529 151.798 57.884C151.89 57.9134 151.9 57.9367 151.885 57.9204L153.38 56.5916ZM151.289 55.824H149.896V57.824H151.289V55.824ZM150.896 56.824V53.224H148.896V56.824H150.896ZM149.896 54.224H158.201V52.224H149.896V54.224ZM157.201 53.224V79.672H159.201V53.224H157.201ZM157.201 79.672C157.201 80.4158 157.375 81.1725 157.925 81.7231L159.34 80.3089C159.314 80.2835 159.201 80.1442 159.201 79.672H157.201ZM157.925 81.7231C158.476 82.2737 159.233 82.448 159.977 82.448V80.448C159.504 80.448 159.365 80.3343 159.34 80.3089L157.925 81.7231ZM159.977 82.448H161.369V80.448H159.977V82.448ZM160.369 81.448V85H162.369V81.448H160.369ZM161.369 84H149.896V86H161.369V84ZM150.896 85V81.448H148.896V85H150.896Z" fill="#2F7787"/>
<path d="M91.4554 128.832C91.4554 131.872 90.3514 134.24 88.1434 135.936C85.9354 137.632 82.9594 138.48 79.2154 138.48C77.2954 138.48 75.5194 138.336 73.8874 138.048C72.2554 137.76 70.8954 137.36 69.8074 136.848V132.72C70.9594 133.232 72.3834 133.696 74.0794 134.112C75.8074 134.528 77.5834 134.736 79.4074 134.736C81.9674 134.736 83.8874 134.24 85.1674 133.248C86.4794 132.256 87.1354 130.912 87.1354 129.216C87.1354 128.096 86.8954 127.152 86.4154 126.384C85.9354 125.616 85.1034 124.912 83.9194 124.272C82.7674 123.6 81.1514 122.896 79.0714 122.16C76.1594 121.104 73.9514 119.808 72.4474 118.272C70.9754 116.736 70.2394 114.64 70.2394 111.984C70.2394 110.16 70.7034 108.608 71.6314 107.328C72.5594 106.016 73.8394 105.008 75.4714 104.304C77.1354 103.6 79.0394 103.248 81.1834 103.248C83.0714 103.248 84.7994 103.424 86.3674 103.776C87.9354 104.128 89.3594 104.592 90.6394 105.168L89.2954 108.864C88.1114 108.352 86.8154 107.92 85.4074 107.568C84.0314 107.216 82.5914 107.04 81.0874 107.04C78.9434 107.04 77.3274 107.504 76.2394 108.432C75.1514 109.328 74.6074 110.528 74.6074 112.032C74.6074 113.184 74.8474 114.144 75.3274 114.912C75.8074 115.68 76.5914 116.368 77.6794 116.976C78.7674 117.584 80.2394 118.24 82.0954 118.944C84.1114 119.68 85.8074 120.48 87.1834 121.344C88.5914 122.176 89.6474 123.184 90.3514 124.368C91.0874 125.552 91.4554 127.04 91.4554 128.832ZM93.7511 112.272H98.2631L103.831 126.912C104.311 128.192 104.743 129.424 105.127 130.608C105.511 131.76 105.799 132.864 105.991 133.92H106.183C106.375 133.12 106.679 132.08 107.095 130.8C107.511 129.488 107.943 128.176 108.391 126.864L113.623 112.272H118.183L107.095 141.552C106.199 143.984 105.031 145.92 103.591 147.36C102.183 148.8 100.231 149.52 97.7351 149.52C96.9671 149.52 96.2951 149.472 95.7191 149.376C95.1431 149.312 94.6471 149.232 94.2311 149.136V145.776C94.5831 145.84 94.9991 145.904 95.4791 145.968C95.9911 146.032 96.5191 146.064 97.0631 146.064C98.5351 146.064 99.7191 145.648 100.615 144.816C101.543 143.984 102.263 142.88 102.775 141.504L104.119 138.096L93.7511 112.272ZM139.004 130.896C139.004 133.392 138.076 135.28 136.22 136.56C134.364 137.84 131.868 138.48 128.732 138.48C126.94 138.48 125.388 138.336 124.076 138.048C122.796 137.76 121.66 137.36 120.668 136.848V133.008C121.692 133.52 122.924 134 124.364 134.448C125.836 134.864 127.324 135.072 128.828 135.072C130.972 135.072 132.524 134.736 133.484 134.064C134.444 133.36 134.924 132.432 134.924 131.28C134.924 130.64 134.748 130.064 134.396 129.552C134.044 129.04 133.404 128.528 132.476 128.016C131.58 127.504 130.284 126.928 128.588 126.288C126.924 125.648 125.5 125.008 124.316 124.368C123.132 123.728 122.22 122.96 121.58 122.064C120.94 121.168 120.62 120.016 120.62 118.608C120.62 116.432 121.5 114.752 123.26 113.568C125.052 112.384 127.388 111.792 130.268 111.792C131.836 111.792 133.292 111.952 134.636 112.272C136.012 112.56 137.292 112.976 138.476 113.52L137.036 116.88C135.948 116.432 134.812 116.048 133.628 115.728C132.444 115.408 131.228 115.248 129.98 115.248C128.252 115.248 126.924 115.536 125.996 116.112C125.1 116.656 124.652 117.408 124.652 118.368C124.652 119.072 124.86 119.68 125.276 120.192C125.692 120.672 126.38 121.152 127.34 121.632C128.332 122.08 129.644 122.624 131.276 123.264C132.908 123.872 134.3 124.496 135.452 125.136C136.604 125.776 137.484 126.56 138.092 127.488C138.7 128.384 139.004 129.52 139.004 130.896ZM153.813 135.024C154.453 135.024 155.109 134.976 155.781 134.88C156.453 134.752 156.997 134.624 157.413 134.496V137.712C156.965 137.936 156.325 138.112 155.493 138.24C154.661 138.4 153.861 138.48 153.093 138.48C151.749 138.48 150.501 138.256 149.349 137.808C148.229 137.328 147.317 136.512 146.613 135.36C145.909 134.208 145.557 132.592 145.557 130.512V115.536H141.909V113.52L145.605 111.84L147.285 106.368H149.781V112.272H157.221V115.536H149.781V130.416C149.781 131.984 150.149 133.152 150.885 133.92C151.653 134.656 152.629 135.024 153.813 135.024ZM172.5 111.792C174.708 111.792 176.596 112.272 178.164 113.232C179.764 114.192 180.98 115.552 181.812 117.312C182.676 119.04 183.108 121.072 183.108 123.408V125.952H165.492C165.556 128.864 166.292 131.088 167.7 132.624C169.14 134.128 171.14 134.88 173.7 134.88C175.332 134.88 176.772 134.736 178.02 134.448C179.3 134.128 180.612 133.68 181.956 133.104V136.8C180.644 137.376 179.348 137.792 178.068 138.048C176.788 138.336 175.268 138.48 173.508 138.48C171.076 138.48 168.916 137.984 167.028 136.992C165.172 136 163.716 134.528 162.66 132.576C161.636 130.592 161.124 128.176 161.124 125.328C161.124 122.512 161.588 120.096 162.516 118.08C163.476 116.064 164.804 114.512 166.5 113.424C168.228 112.336 170.228 111.792 172.5 111.792ZM172.452 115.248C170.436 115.248 168.836 115.904 167.652 117.216C166.5 118.496 165.812 120.288 165.588 122.592H178.692C178.66 120.416 178.148 118.656 177.156 117.312C176.164 115.936 174.596 115.248 172.452 115.248ZM217.882 111.792C220.794 111.792 222.97 112.544 224.41 114.048C225.85 115.52 226.57 117.92 226.57 121.248V138H222.394V121.44C222.394 117.376 220.65 115.344 217.162 115.344C214.666 115.344 212.874 116.064 211.786 117.504C210.73 118.944 210.202 121.04 210.202 123.792V138H206.026V121.44C206.026 117.376 204.266 115.344 200.746 115.344C198.154 115.344 196.362 116.144 195.37 117.744C194.378 119.344 193.882 121.648 193.882 124.656V138H189.658V112.272H193.066L193.69 115.776H193.93C194.73 114.432 195.802 113.44 197.146 112.8C198.522 112.128 199.978 111.792 201.514 111.792C205.546 111.792 208.17 113.232 209.386 116.112H209.626C210.49 114.64 211.658 113.552 213.13 112.848C214.634 112.144 216.218 111.792 217.882 111.792ZM251.27 130.896C251.27 133.392 250.342 135.28 248.486 136.56C246.63 137.84 244.134 138.48 240.998 138.48C239.206 138.48 237.654 138.336 236.342 138.048C235.062 137.76 233.926 137.36 232.934 136.848V133.008C233.958 133.52 235.19 134 236.63 134.448C238.102 134.864 239.59 135.072 241.094 135.072C243.238 135.072 244.79 134.736 245.75 134.064C246.71 133.36 247.19 132.432 247.19 131.28C247.19 130.64 247.014 130.064 246.662 129.552C246.31 129.04 245.67 128.528 244.742 128.016C243.846 127.504 242.55 126.928 240.854 126.288C239.19 125.648 237.766 125.008 236.582 124.368C235.398 123.728 234.486 122.96 233.846 122.064C233.206 121.168 232.886 120.016 232.886 118.608C232.886 116.432 233.766 114.752 235.526 113.568C237.318 112.384 239.654 111.792 242.534 111.792C244.102 111.792 245.558 111.952 246.902 112.272C248.278 112.56 249.558 112.976 250.742 113.52L249.302 116.88C248.214 116.432 247.078 116.048 245.894 115.728C244.71 115.408 243.494 115.248 242.246 115.248C240.518 115.248 239.19 115.536 238.262 116.112C237.366 116.656 236.918 117.408 236.918 118.368C236.918 119.072 237.126 119.68 237.542 120.192C237.958 120.672 238.646 121.152 239.606 121.632C240.598 122.08 241.91 122.624 243.542 123.264C245.174 123.872 246.566 124.496 247.718 125.136C248.87 125.776 249.75 126.56 250.358 127.488C250.966 128.384 251.27 129.52 251.27 130.896Z" fill="#1F401C"/>
<path d="M88.1434 135.936L87.5342 135.143L88.1434 135.936ZM73.8874 138.048L74.0612 137.063L74.0612 137.063L73.8874 138.048ZM69.8074 136.848H68.8074V137.483L69.3816 137.753L69.8074 136.848ZM69.8074 132.72L70.2135 131.806L68.8074 131.181V132.72H69.8074ZM74.0794 134.112L73.8412 135.083L73.8453 135.084L74.0794 134.112ZM85.1674 133.248L84.5642 132.45L84.5548 132.458L85.1674 133.248ZM86.4154 126.384L85.5674 126.914L85.5674 126.914L86.4154 126.384ZM83.9194 124.272L83.4155 125.136L83.4296 125.144L83.4439 125.152L83.9194 124.272ZM79.0714 122.16L78.7305 123.1L78.7378 123.103L79.0714 122.16ZM72.4474 118.272L71.7253 118.964L71.7329 118.972L72.4474 118.272ZM71.6314 107.328L72.441 107.915L72.4478 107.905L71.6314 107.328ZM75.4714 104.304L75.0817 103.383L75.0753 103.386L75.4714 104.304ZM86.3674 103.776L86.5864 102.8L86.5864 102.8L86.3674 103.776ZM90.6394 105.168L91.5792 105.51L91.8965 104.637L91.0497 104.256L90.6394 105.168ZM89.2954 108.864L88.8985 109.782L89.8725 110.203L90.2352 109.206L89.2954 108.864ZM85.4074 107.568L85.1595 108.537L85.1648 108.538L85.4074 107.568ZM76.2394 108.432L76.8751 109.204L76.8818 109.198L76.8883 109.193L76.2394 108.432ZM75.3274 114.912L76.1754 114.382L76.1754 114.382L75.3274 114.912ZM77.6794 116.976L77.1916 117.849L77.1916 117.849L77.6794 116.976ZM82.0954 118.944L81.7407 119.879L81.7524 119.883L82.0954 118.944ZM87.1834 121.344L86.6516 122.191L86.663 122.198L86.6746 122.205L87.1834 121.344ZM90.3514 124.368L89.4918 124.879L89.4969 124.888L89.5021 124.896L90.3514 124.368ZM90.4554 128.832C90.4554 131.594 89.4709 133.655 87.5342 135.143L88.7525 136.729C91.2319 134.825 92.4554 132.15 92.4554 128.832H90.4554ZM87.5342 135.143C85.5526 136.665 82.8145 137.48 79.2154 137.48V139.48C83.1043 139.48 86.3182 138.599 88.7525 136.729L87.5342 135.143ZM79.2154 137.48C77.3447 137.48 75.6276 137.34 74.0612 137.063L73.7136 139.033C75.4111 139.332 77.246 139.48 79.2154 139.48V137.48ZM74.0612 137.063C72.486 136.785 71.2173 136.406 70.2332 135.943L69.3816 137.753C70.5734 138.314 72.0247 138.735 73.7136 139.033L74.0612 137.063ZM70.8074 136.848V132.72H68.8074V136.848H70.8074ZM69.4012 133.634C70.6236 134.177 72.1078 134.658 73.8412 135.083L74.3176 133.141C72.6589 132.734 71.2952 132.287 70.2135 131.806L69.4012 133.634ZM73.8453 135.084C75.652 135.519 77.5066 135.736 79.4074 135.736V133.736C77.6601 133.736 75.9628 133.537 74.3134 133.14L73.8453 135.084ZM79.4074 135.736C82.0688 135.736 84.2487 135.225 85.7799 134.038L84.5548 132.458C83.526 133.255 81.8659 133.736 79.4074 133.736V135.736ZM85.7705 134.046C87.3414 132.858 88.1354 131.214 88.1354 129.216H86.1354C86.1354 130.61 85.6173 131.654 84.5643 132.45L85.7705 134.046ZM88.1354 129.216C88.1354 127.953 87.8638 126.815 87.2634 125.854L85.5674 126.914C85.9269 127.489 86.1354 128.239 86.1354 129.216H88.1354ZM87.2634 125.854C86.6576 124.885 85.6625 124.078 84.3949 123.392L83.4439 125.152C84.5442 125.746 85.2132 126.347 85.5674 126.914L87.2634 125.854ZM84.4232 123.408C83.1935 122.691 81.5111 121.963 79.405 121.217L78.7378 123.103C80.7916 123.829 82.3412 124.509 83.4155 125.136L84.4232 123.408ZM79.4123 121.22C76.5836 120.194 74.5252 118.965 73.1619 117.572L71.7329 118.972C73.3776 120.651 75.7351 122.014 78.7305 123.1L79.4123 121.22ZM73.1694 117.58C71.9174 116.274 71.2394 114.449 71.2394 111.984H69.2394C69.2394 114.831 70.0333 117.198 71.7254 118.964L73.1694 117.58ZM71.2394 111.984C71.2394 110.337 71.6551 108.999 72.441 107.915L70.8218 106.741C69.7517 108.217 69.2394 109.983 69.2394 111.984H71.2394ZM72.4478 107.905C73.2586 106.759 74.3858 105.861 75.8675 105.222L75.0753 103.386C73.293 104.155 71.8601 105.273 70.815 106.751L72.4478 107.905ZM75.861 105.225C77.381 104.582 79.1487 104.248 81.1834 104.248V102.248C78.9301 102.248 76.8898 102.618 75.0817 103.383L75.861 105.225ZM81.1834 104.248C83.0101 104.248 84.6634 104.418 86.1483 104.752L86.5864 102.8C84.9353 102.43 83.1326 102.248 81.1834 102.248V104.248ZM86.1483 104.752C87.6598 105.091 89.0186 105.535 90.229 106.08L91.0497 104.256C89.7002 103.649 88.2109 103.165 86.5864 102.8L86.1483 104.752ZM89.6996 104.826L88.3556 108.522L90.2352 109.206L91.5792 105.51L89.6996 104.826ZM89.6923 107.946C88.4526 107.41 87.1043 106.961 85.6499 106.598L85.1648 108.538C86.5265 108.879 87.7702 109.294 88.8985 109.782L89.6923 107.946ZM85.6552 106.599C84.1936 106.225 82.6701 106.04 81.0874 106.04V108.04C82.5127 108.04 83.8691 108.207 85.1595 108.537L85.6552 106.599ZM81.0874 106.04C78.8202 106.04 76.9309 106.528 75.5904 107.671L76.8883 109.193C77.7239 108.48 79.0665 108.04 81.0874 108.04V106.04ZM75.6037 107.66C74.2679 108.76 73.6074 110.252 73.6074 112.032H75.6074C75.6074 110.804 76.0349 109.896 76.8751 109.204L75.6037 107.66ZM73.6074 112.032C73.6074 113.321 73.8763 114.477 74.4794 115.442L76.1754 114.382C75.8184 113.811 75.6074 113.047 75.6074 112.032H73.6074ZM74.4794 115.442C75.0759 116.396 76.0092 117.188 77.1916 117.849L78.1672 116.103C77.1736 115.548 76.5388 114.964 76.1754 114.382L74.4794 115.442ZM77.1916 117.849C78.3398 118.491 79.8623 119.166 81.7407 119.879L82.45 118.009C80.6164 117.313 79.195 116.677 78.1672 116.103L77.1916 117.849ZM81.7524 119.883C83.7221 120.602 85.3506 121.374 86.6516 122.191L87.7151 120.497C86.2642 119.586 84.5007 118.758 82.4383 118.005L81.7524 119.883ZM86.6746 122.205C87.9653 122.968 88.8883 123.864 89.4918 124.879L91.2109 123.857C90.4064 122.504 89.2175 121.384 87.6921 120.483L86.6746 122.205ZM89.5021 124.896C90.1151 125.882 90.4554 127.174 90.4554 128.832H92.4554C92.4554 126.906 92.0596 125.222 91.2007 123.84L89.5021 124.896ZM93.7511 112.272V111.272H92.2721L92.8231 112.645L93.7511 112.272ZM98.2631 112.272L99.1978 111.917L98.9527 111.272H98.2631V112.272ZM103.831 126.912L104.767 126.561L104.766 126.557L103.831 126.912ZM105.127 130.608L104.176 130.917L104.178 130.924L105.127 130.608ZM105.991 133.92L105.007 134.099L105.157 134.92H105.991V133.92ZM106.183 133.92V134.92H106.972L107.156 134.153L106.183 133.92ZM107.095 130.8L108.046 131.109L108.048 131.102L107.095 130.8ZM108.391 126.864L107.45 126.526L107.447 126.534L107.445 126.541L108.391 126.864ZM113.623 112.272V111.272H112.919L112.682 111.934L113.623 112.272ZM118.183 112.272L119.118 112.626L119.631 111.272H118.183V112.272ZM107.095 141.552L106.16 141.198L106.157 141.206L107.095 141.552ZM103.591 147.36L102.884 146.653L102.876 146.661L103.591 147.36ZM95.7191 149.376L95.8835 148.39L95.8566 148.385L95.8296 148.382L95.7191 149.376ZM94.2311 149.136H93.2311V149.932L94.0063 150.11L94.2311 149.136ZM94.2311 145.776L94.41 144.792L93.2311 144.578V145.776H94.2311ZM95.4791 145.968L95.347 146.959L95.3551 146.96L95.4791 145.968ZM100.615 144.816L99.9476 144.071L99.9411 144.077L99.9347 144.083L100.615 144.816ZM102.775 141.504L101.845 141.137L101.841 141.146L101.838 141.155L102.775 141.504ZM104.119 138.096L105.049 138.463L105.195 138.093L105.047 137.723L104.119 138.096ZM93.7511 113.272H98.2631V111.272H93.7511V113.272ZM97.3284 112.627L102.896 127.267L104.766 126.557L99.1978 111.917L97.3284 112.627ZM102.895 127.263C103.37 128.53 103.797 129.748 104.176 130.917L106.078 130.299C105.689 129.1 105.252 127.854 104.767 126.561L102.895 127.263ZM104.178 130.924C104.549 132.037 104.825 133.095 105.007 134.099L106.975 133.741C106.774 132.633 106.473 131.483 106.076 130.292L104.178 130.924ZM105.991 134.92H106.183V132.92H105.991V134.92ZM107.156 134.153C107.339 133.39 107.634 132.378 108.046 131.109L106.144 130.491C105.724 131.782 105.411 132.85 105.211 133.687L107.156 134.153ZM108.048 131.102C108.462 129.797 108.892 128.492 109.337 127.187L107.445 126.541C106.994 127.86 106.56 129.179 106.142 130.498L108.048 131.102ZM109.332 127.202L114.564 112.61L112.682 111.934L107.45 126.526L109.332 127.202ZM113.623 113.272H118.183V111.272H113.623V113.272ZM117.248 111.918L106.16 141.198L108.03 141.906L119.118 112.626L117.248 111.918ZM106.157 141.206C105.298 143.538 104.198 145.339 102.884 146.653L104.298 148.067C105.864 146.501 107.101 144.43 108.033 141.898L106.157 141.206ZM102.876 146.661C101.699 147.864 100.03 148.52 97.7351 148.52V150.52C100.432 150.52 102.667 149.736 104.306 148.059L102.876 146.661ZM97.7351 148.52C97.0061 148.52 96.3913 148.474 95.8835 148.39L95.5547 150.362C96.1989 150.47 96.9281 150.52 97.7351 150.52V148.52ZM95.8296 148.382C95.2795 148.321 94.8237 148.246 94.456 148.162L94.0063 150.11C94.4706 150.218 95.0068 150.303 95.6087 150.37L95.8296 148.382ZM95.2311 149.136V145.776H93.2311V149.136H95.2311ZM94.0522 146.76C94.4241 146.827 94.8564 146.894 95.347 146.959L95.6113 144.977C95.1419 144.914 94.7422 144.853 94.41 144.792L94.0522 146.76ZM95.3551 146.96C95.9104 147.03 96.4799 147.064 97.0631 147.064V145.064C96.5584 145.064 96.0719 145.034 95.6032 144.976L95.3551 146.96ZM97.0631 147.064C98.7331 147.064 100.178 146.586 101.296 145.549L99.9347 144.083C99.26 144.71 98.3371 145.064 97.0631 145.064V147.064ZM101.283 145.561C102.351 144.603 103.154 143.354 103.712 141.853L101.838 141.155C101.372 142.406 100.735 143.365 99.9476 144.071L101.283 145.561ZM103.705 141.871L105.049 138.463L103.189 137.729L101.845 141.137L103.705 141.871ZM105.047 137.723L94.6791 111.899L92.8231 112.645L103.191 138.469L105.047 137.723ZM136.22 136.56L135.652 135.737L135.652 135.737L136.22 136.56ZM124.076 138.048L123.856 139.024L123.861 139.025L124.076 138.048ZM120.668 136.848H119.668V137.457L120.209 137.737L120.668 136.848ZM120.668 133.008L121.115 132.114L119.668 131.39V133.008H120.668ZM124.364 134.448L124.067 135.403L124.079 135.407L124.092 135.41L124.364 134.448ZM133.484 134.064L134.057 134.883L134.066 134.877L134.075 134.87L133.484 134.064ZM134.396 129.552L135.22 128.985L135.22 128.985L134.396 129.552ZM132.476 128.016L131.98 128.884L131.986 128.888L131.993 128.892L132.476 128.016ZM128.588 126.288L128.229 127.221L128.235 127.224L128.588 126.288ZM121.58 122.064L120.766 122.645L120.766 122.645L121.58 122.064ZM123.26 113.568L122.709 112.734L122.702 112.738L123.26 113.568ZM134.636 112.272L134.404 113.245L134.418 113.248L134.431 113.251L134.636 112.272ZM138.476 113.52L139.395 113.914L139.779 113.018L138.893 112.611L138.476 113.52ZM137.036 116.88L136.655 117.805L137.567 118.18L137.955 117.274L137.036 116.88ZM133.628 115.728L133.367 116.693L133.367 116.693L133.628 115.728ZM125.996 116.112L126.515 116.967L126.523 116.962L125.996 116.112ZM125.276 120.192L124.5 120.823L124.51 120.835L124.52 120.847L125.276 120.192ZM127.34 121.632L126.893 122.526L126.91 122.535L126.928 122.543L127.34 121.632ZM131.276 123.264L130.911 124.195L130.919 124.198L130.927 124.201L131.276 123.264ZM135.452 125.136L134.966 126.01L134.966 126.01L135.452 125.136ZM138.092 127.488L137.255 128.036L137.26 128.043L137.264 128.05L138.092 127.488ZM138.004 130.896C138.004 133.104 137.205 134.666 135.652 135.737L136.788 137.383C138.946 135.894 140.004 133.68 140.004 130.896H138.004ZM135.652 135.737C134.017 136.865 131.742 137.48 128.732 137.48V139.48C131.994 139.48 134.711 138.815 136.788 137.383L135.652 135.737ZM128.732 137.48C126.99 137.48 125.513 137.34 124.29 137.071L123.861 139.025C125.263 139.332 126.89 139.48 128.732 139.48V137.48ZM124.295 137.072C123.084 136.8 122.031 136.426 121.127 135.959L120.209 137.737C121.289 138.294 122.507 138.72 123.856 139.024L124.295 137.072ZM121.668 136.848V133.008H119.668V136.848H121.668ZM120.221 133.902C121.305 134.445 122.59 134.944 124.067 135.403L124.661 133.493C123.257 133.056 122.078 132.595 121.115 132.114L120.221 133.902ZM124.092 135.41C125.651 135.851 127.23 136.072 128.828 136.072V134.072C127.417 134.072 126.021 133.877 124.636 133.486L124.092 135.41ZM128.828 136.072C131.03 136.072 132.839 135.736 134.057 134.883L132.91 133.245C132.208 133.736 130.914 134.072 128.828 134.072V136.072ZM134.075 134.87C135.282 133.985 135.924 132.763 135.924 131.28H133.924C133.924 132.101 133.606 132.735 132.893 133.258L134.075 134.87ZM135.924 131.28C135.924 130.444 135.69 129.669 135.22 128.985L133.572 130.119C133.806 130.459 133.924 130.836 133.924 131.28H135.924ZM135.22 128.985C134.738 128.285 133.94 127.681 132.959 127.14L131.993 128.892C132.868 129.375 133.349 129.795 133.572 130.119L135.22 128.985ZM132.972 127.148C132.008 126.597 130.655 125.999 128.941 125.352L128.235 127.224C129.912 127.857 131.151 128.411 131.98 128.884L132.972 127.148ZM128.947 125.355C127.311 124.725 125.928 124.103 124.791 123.488L123.84 125.248C125.072 125.913 126.537 126.571 128.229 127.221L128.947 125.355ZM124.791 123.488C123.712 122.905 122.928 122.23 122.394 121.483L120.766 122.645C121.512 123.69 122.552 124.551 123.84 125.248L124.791 123.488ZM122.394 121.483C121.905 120.798 121.62 119.866 121.62 118.608H119.62C119.62 120.166 119.975 121.538 120.766 122.645L122.394 121.483ZM121.62 118.608C121.62 116.755 122.343 115.39 123.818 114.398L122.702 112.738C120.657 114.114 119.62 116.109 119.62 118.608H121.62ZM123.811 114.402C125.392 113.358 127.519 112.792 130.268 112.792V110.792C127.257 110.792 124.711 111.41 122.709 112.734L123.811 114.402ZM130.268 112.792C131.768 112.792 133.146 112.945 134.404 113.245L134.867 111.299C133.438 110.959 131.904 110.792 130.268 110.792V112.792ZM134.431 113.251C135.739 113.525 136.948 113.918 138.058 114.429L138.893 112.611C137.636 112.034 136.284 111.595 134.841 111.293L134.431 113.251ZM137.557 113.126L136.117 116.486L137.955 117.274L139.395 113.914L137.557 113.126ZM137.417 115.955C136.288 115.491 135.112 115.093 133.889 114.763L133.367 116.693C134.512 117.003 135.608 117.373 136.655 117.805L137.417 115.955ZM133.889 114.763C132.618 114.419 131.314 114.248 129.98 114.248V116.248C131.141 116.248 132.27 116.397 133.367 116.693L133.889 114.763ZM129.98 114.248C128.164 114.248 126.622 114.546 125.469 115.262L126.523 116.962C127.226 116.526 128.339 116.248 129.98 116.248V114.248ZM125.477 115.257C124.315 115.962 123.652 117.022 123.652 118.368H125.652C125.652 117.794 125.884 117.35 126.515 116.967L125.477 115.257ZM123.652 118.368C123.652 119.285 123.929 120.12 124.5 120.823L126.052 119.561C125.791 119.24 125.652 118.859 125.652 118.368H123.652ZM124.52 120.847C125.062 121.472 125.885 122.023 126.893 122.526L127.787 120.738C126.875 120.281 126.322 119.872 126.032 119.537L124.52 120.847ZM126.928 122.543C127.942 123.001 129.271 123.552 130.911 124.195L131.641 122.333C130.016 121.696 128.722 121.159 127.751 120.721L126.928 122.543ZM130.927 124.201C132.526 124.797 133.869 125.401 134.966 126.01L135.938 124.262C134.73 123.591 133.29 122.947 131.625 122.327L130.927 124.201ZM134.966 126.01C136.003 126.586 136.751 127.267 137.255 128.036L138.928 126.94C138.216 125.853 137.205 124.966 135.938 124.262L134.966 126.01ZM137.264 128.05C137.733 128.74 138.004 129.666 138.004 130.896H140.004C140.004 129.374 139.667 128.028 138.919 126.926L137.264 128.05ZM155.781 134.88L155.922 135.87L155.945 135.867L155.968 135.862L155.781 134.88ZM157.413 134.496H158.413V133.142L157.119 133.54L157.413 134.496ZM157.413 137.712L157.86 138.606L158.413 138.33V137.712H157.413ZM155.493 138.24L155.341 137.252L155.322 137.254L155.304 137.258L155.493 138.24ZM149.349 137.808L148.955 138.727L148.97 138.734L148.986 138.74L149.349 137.808ZM145.557 115.536H146.557V114.536H145.557V115.536ZM141.909 115.536H140.909V116.536H141.909V115.536ZM141.909 113.52L141.495 112.61L140.909 112.876V113.52H141.909ZM145.605 111.84L146.018 112.75L146.428 112.564L146.561 112.133L145.605 111.84ZM147.285 106.368V105.368H146.546L146.329 106.075L147.285 106.368ZM149.781 106.368H150.781V105.368H149.781V106.368ZM149.781 112.272H148.781V113.272H149.781V112.272ZM157.221 112.272H158.221V111.272H157.221V112.272ZM157.221 115.536V116.536H158.221V115.536H157.221ZM149.781 115.536V114.536H148.781V115.536H149.781ZM150.885 133.92L150.163 134.612L150.177 134.627L150.193 134.642L150.885 133.92ZM153.813 136.024C154.503 136.024 155.206 135.972 155.922 135.87L155.639 133.89C155.011 133.98 154.403 134.024 153.813 134.024V136.024ZM155.968 135.862C156.658 135.731 157.242 135.595 157.707 135.452L157.119 133.54C156.752 133.653 156.247 133.773 155.594 133.898L155.968 135.862ZM156.413 134.496V137.712H158.413V134.496H156.413ZM156.965 136.818C156.652 136.974 156.13 137.13 155.341 137.252L155.645 139.228C156.52 139.094 157.277 138.898 157.86 138.606L156.965 136.818ZM155.304 137.258C154.528 137.407 153.791 137.48 153.093 137.48V139.48C153.93 139.48 154.794 139.393 155.681 139.222L155.304 137.258ZM153.093 137.48C151.862 137.48 150.738 137.275 149.711 136.876L148.986 138.74C150.263 139.237 151.636 139.48 153.093 139.48V137.48ZM149.743 136.889C148.834 136.499 148.074 135.834 147.466 134.839L145.759 135.881C146.559 137.19 147.624 138.157 148.955 138.727L149.743 136.889ZM147.466 134.839C146.896 133.907 146.557 132.5 146.557 130.512H144.557C144.557 132.684 144.921 134.509 145.759 135.881L147.466 134.839ZM146.557 130.512V115.536H144.557V130.512H146.557ZM145.557 114.536H141.909V116.536H145.557V114.536ZM142.909 115.536V113.52H140.909V115.536H142.909ZM142.322 114.43L146.018 112.75L145.191 110.93L141.495 112.61L142.322 114.43ZM146.561 112.133L148.241 106.661L146.329 106.075L144.649 111.547L146.561 112.133ZM147.285 107.368H149.781V105.368H147.285V107.368ZM148.781 106.368V112.272H150.781V106.368H148.781ZM149.781 113.272H157.221V111.272H149.781V113.272ZM156.221 112.272V115.536H158.221V112.272H156.221ZM157.221 114.536H149.781V116.536H157.221V114.536ZM148.781 115.536V130.416H150.781V115.536H148.781ZM148.781 130.416C148.781 132.121 149.179 133.586 150.163 134.612L151.607 133.228C151.118 132.718 150.781 131.847 150.781 130.416H148.781ZM150.193 134.642C151.169 135.577 152.402 136.024 153.813 136.024V134.024C152.855 134.024 152.137 133.735 151.577 133.198L150.193 134.642ZM178.164 113.232L177.642 114.085L177.65 114.089L178.164 113.232ZM181.812 117.312L180.908 117.739L180.913 117.749L180.918 117.759L181.812 117.312ZM183.108 125.952V126.952H184.108V125.952H183.108ZM165.492 125.952V124.952H164.47L164.493 125.974L165.492 125.952ZM167.7 132.624L166.963 133.3L166.971 133.308L166.978 133.316L167.7 132.624ZM178.02 134.448L178.245 135.422L178.254 135.42L178.263 135.418L178.02 134.448ZM181.956 133.104H182.956V131.587L181.562 132.185L181.956 133.104ZM181.956 136.8L182.358 137.716L182.956 137.453V136.8H181.956ZM178.068 138.048L177.872 137.067L177.861 137.07L177.849 137.072L178.068 138.048ZM167.028 136.992L166.557 137.874L166.563 137.877L167.028 136.992ZM162.66 132.576L161.772 133.035L161.776 133.043L161.781 133.052L162.66 132.576ZM162.516 118.08L161.613 117.65L161.608 117.662L162.516 118.08ZM166.5 113.424L165.968 112.578L165.96 112.582L166.5 113.424ZM167.652 117.216L166.91 116.546L166.909 116.547L167.652 117.216ZM165.588 122.592L164.593 122.495L164.486 123.592H165.588V122.592ZM178.692 122.592V123.592H179.707L179.692 122.577L178.692 122.592ZM177.156 117.312L176.345 117.897L176.352 117.906L177.156 117.312ZM172.5 112.792C174.561 112.792 176.26 113.239 177.642 114.085L178.687 112.379C176.932 111.305 174.855 110.792 172.5 110.792V112.792ZM177.65 114.089C179.073 114.943 180.157 116.15 180.908 117.739L182.716 116.885C181.804 114.954 180.456 113.441 178.679 112.375L177.65 114.089ZM180.918 117.759C181.699 119.322 182.108 121.195 182.108 123.408H184.108C184.108 120.949 183.653 118.758 182.707 116.865L180.918 117.759ZM182.108 123.408V125.952H184.108V123.408H182.108ZM183.108 124.952H165.492V126.952H183.108V124.952ZM164.493 125.974C164.56 129.032 165.336 131.525 166.963 133.3L168.438 131.948C167.249 130.651 166.553 128.696 166.492 125.93L164.493 125.974ZM166.978 133.316C168.648 135.06 170.935 135.88 173.7 135.88V133.88C171.346 133.88 169.632 133.196 168.423 131.932L166.978 133.316ZM173.7 135.88C175.389 135.88 176.907 135.731 178.245 135.422L177.796 133.474C176.638 133.741 175.276 133.88 173.7 133.88V135.88ZM178.263 135.418C179.6 135.084 180.962 134.618 182.35 134.023L181.562 132.185C180.262 132.742 179.001 133.172 177.778 133.478L178.263 135.418ZM180.956 133.104V136.8H182.956V133.104H180.956ZM181.554 135.884C180.302 136.434 179.075 136.827 177.872 137.067L178.264 139.029C179.622 138.757 180.987 138.318 182.358 137.716L181.554 135.884ZM177.849 137.072C176.661 137.34 175.218 137.48 173.508 137.48V139.48C175.319 139.48 176.916 139.332 178.288 139.024L177.849 137.072ZM173.508 137.48C171.215 137.48 169.219 137.013 167.494 136.107L166.563 137.877C168.614 138.955 170.937 139.48 173.508 139.48V137.48ZM167.5 136.11C165.826 135.216 164.508 133.89 163.54 132.1L161.781 133.052C162.925 135.166 164.518 136.784 166.557 137.874L167.5 136.11ZM163.549 132.117C162.616 130.309 162.124 128.059 162.124 125.328H160.124C160.124 128.293 160.657 130.875 161.772 133.035L163.549 132.117ZM162.124 125.328C162.124 122.619 162.571 120.353 163.425 118.498L161.608 117.662C160.606 119.839 160.124 122.405 160.124 125.328H162.124ZM163.419 118.51C164.308 116.644 165.518 115.242 167.04 114.266L165.96 112.582C164.091 113.782 162.645 115.484 161.614 117.65L163.419 118.51ZM167.033 114.27C168.584 113.294 170.395 112.792 172.5 112.792V110.792C170.062 110.792 167.873 111.378 165.968 112.578L167.033 114.27ZM172.452 114.248C170.197 114.248 168.311 114.993 166.91 116.546L168.395 117.886C169.362 116.815 170.675 116.248 172.452 116.248V114.248ZM166.909 116.547C165.572 118.033 164.831 120.051 164.593 122.495L166.584 122.689C166.794 120.525 167.429 118.959 168.396 117.885L166.909 116.547ZM165.588 123.592H178.692V121.592H165.588V123.592ZM179.692 122.577C179.658 120.256 179.11 118.274 177.961 116.718L176.352 117.906C177.187 119.038 177.663 120.576 177.692 122.607L179.692 122.577ZM177.968 116.727C176.738 115.022 174.823 114.248 172.452 114.248V116.248C174.369 116.248 175.59 116.85 176.345 117.897L177.968 116.727ZM224.41 114.048L223.688 114.74L223.695 114.747L224.41 114.048ZM226.57 138V139H227.57V138H226.57ZM222.394 138H221.394V139H222.394V138ZM211.786 117.504L210.988 116.901L210.984 116.907L210.98 116.913L211.786 117.504ZM210.202 138V139H211.202V138H210.202ZM206.026 138H205.026V139H206.026V138ZM193.882 138V139H194.882V138H193.882ZM189.658 138H188.658V139H189.658V138ZM189.658 112.272V111.272H188.658V112.272H189.658ZM193.066 112.272L194.051 112.097L193.904 111.272H193.066V112.272ZM193.69 115.776L192.706 115.951L192.852 116.776H193.69V115.776ZM193.93 115.776V116.776H194.499L194.789 116.287L193.93 115.776ZM197.146 112.8L197.576 113.703L197.585 113.699L197.146 112.8ZM209.386 116.112L208.465 116.501L208.723 117.112H209.386V116.112ZM209.626 116.112V117.112H210.199L210.489 116.618L209.626 116.112ZM213.13 112.848L212.706 111.942L212.699 111.946L213.13 112.848ZM217.882 112.792C220.632 112.792 222.502 113.501 223.688 114.74L225.132 113.356C223.439 111.587 220.956 110.792 217.882 110.792V112.792ZM223.695 114.747C224.868 115.946 225.57 118.028 225.57 121.248H227.57C227.57 117.812 226.833 115.094 225.125 113.349L223.695 114.747ZM225.57 121.248V138H227.57V121.248H225.57ZM226.57 137H222.394V139H226.57V137ZM223.394 138V121.44H221.394V138H223.394ZM223.394 121.44C223.394 119.288 222.936 117.488 221.845 116.217C220.729 114.917 219.104 114.344 217.162 114.344V116.344C218.709 116.344 219.699 116.787 220.327 117.519C220.981 118.28 221.394 119.528 221.394 121.44H223.394ZM217.162 114.344C214.481 114.344 212.331 115.124 210.988 116.901L212.584 118.107C213.417 117.004 214.851 116.344 217.162 116.344V114.344ZM210.98 116.913C209.746 118.594 209.202 120.935 209.202 123.792H211.202C211.202 121.145 211.714 119.294 212.593 118.095L210.98 116.913ZM209.202 123.792V138H211.202V123.792H209.202ZM210.202 137H206.026V139H210.202V137ZM207.026 138V121.44H205.026V138H207.026ZM207.026 121.44C207.026 119.286 206.563 117.484 205.462 116.213C204.337 114.915 202.701 114.344 200.746 114.344V116.344C202.312 116.344 203.315 116.789 203.95 117.523C204.609 118.284 205.026 119.53 205.026 121.44H207.026ZM200.746 114.344C197.953 114.344 195.76 115.218 194.52 117.217L196.22 118.271C196.965 117.07 198.355 116.344 200.746 116.344V114.344ZM194.52 117.217C193.388 119.044 192.882 121.563 192.882 124.656H194.882C194.882 121.733 195.368 119.644 196.22 118.271L194.52 117.217ZM192.882 124.656V138H194.882V124.656H192.882ZM193.882 137H189.658V139H193.882V137ZM190.658 138V112.272H188.658V138H190.658ZM189.658 113.272H193.066V111.272H189.658V113.272ZM192.082 112.447L192.706 115.951L194.675 115.601L194.051 112.097L192.082 112.447ZM193.69 116.776H193.93V114.776H193.69V116.776ZM194.789 116.287C195.494 115.104 196.42 114.253 197.576 113.703L196.716 111.897C195.184 112.627 193.967 113.76 193.071 115.265L194.789 116.287ZM197.585 113.699C198.824 113.094 200.13 112.792 201.514 112.792V110.792C199.827 110.792 198.22 111.162 196.707 111.901L197.585 113.699ZM201.514 112.792C203.418 112.792 204.903 113.133 206.025 113.749C207.13 114.355 207.94 115.259 208.465 116.501L210.307 115.723C209.616 114.085 208.506 112.829 206.987 111.995C205.485 111.171 203.642 110.792 201.514 110.792V112.792ZM209.386 117.112H209.626V115.112H209.386V117.112ZM210.489 116.618C211.257 115.31 212.278 114.364 213.562 113.75L212.699 111.946C211.038 112.74 209.724 113.97 208.764 115.606L210.489 116.618ZM213.554 113.754C214.925 113.112 216.364 112.792 217.882 112.792V110.792C216.072 110.792 214.343 111.176 212.706 111.942L213.554 113.754ZM248.486 136.56L247.918 135.737L247.918 135.737L248.486 136.56ZM236.342 138.048L236.122 139.024L236.127 139.025L236.342 138.048ZM232.934 136.848H231.934V137.457L232.475 137.737L232.934 136.848ZM232.934 133.008L233.381 132.114L231.934 131.39V133.008H232.934ZM236.63 134.448L236.332 135.403L236.345 135.407L236.358 135.41L236.63 134.448ZM245.75 134.064L246.323 134.883L246.332 134.877L246.341 134.87L245.75 134.064ZM246.662 129.552L247.486 128.985L247.486 128.985L246.662 129.552ZM244.742 128.016L244.245 128.884L244.252 128.888L244.258 128.892L244.742 128.016ZM240.854 126.288L240.495 127.221L240.5 127.224L240.854 126.288ZM233.846 122.064L233.032 122.645L233.032 122.645L233.846 122.064ZM235.526 113.568L234.974 112.734L234.967 112.738L235.526 113.568ZM246.902 112.272L246.67 113.245L246.683 113.248L246.697 113.251L246.902 112.272ZM250.742 113.52L251.661 113.914L252.045 113.018L251.159 112.611L250.742 113.52ZM249.302 116.88L248.921 117.805L249.832 118.18L250.221 117.274L249.302 116.88ZM245.894 115.728L245.633 116.693L245.633 116.693L245.894 115.728ZM238.262 116.112L238.781 116.967L238.789 116.962L238.262 116.112ZM237.542 120.192L236.765 120.823L236.775 120.835L236.786 120.847L237.542 120.192ZM239.606 121.632L239.158 122.526L239.176 122.535L239.194 122.543L239.606 121.632ZM243.542 123.264L243.176 124.195L243.184 124.198L243.192 124.201L243.542 123.264ZM247.718 125.136L247.232 126.01L247.232 126.01L247.718 125.136ZM250.358 127.488L249.521 128.036L249.525 128.043L249.53 128.05L250.358 127.488ZM250.27 130.896C250.27 133.104 249.471 134.666 247.918 135.737L249.053 137.383C251.212 135.894 252.27 133.68 252.27 130.896H250.27ZM247.918 135.737C246.282 136.865 244.008 137.48 240.998 137.48V139.48C244.259 139.48 246.977 138.815 249.053 137.383L247.918 135.737ZM240.998 137.48C239.255 137.48 237.779 137.34 236.556 137.071L236.127 139.025C237.528 139.332 239.156 139.48 240.998 139.48V137.48ZM236.561 137.072C235.35 136.8 234.297 136.426 233.392 135.959L232.475 137.737C233.554 138.294 234.773 138.72 236.122 139.024L236.561 137.072ZM233.934 136.848V133.008H231.934V136.848H233.934ZM232.486 133.902C233.571 134.445 234.856 134.944 236.332 135.403L236.927 133.493C235.523 133.056 234.344 132.595 233.381 132.114L232.486 133.902ZM236.358 135.41C237.917 135.851 239.496 136.072 241.094 136.072V134.072C239.683 134.072 238.286 133.877 236.901 133.486L236.358 135.41ZM241.094 136.072C243.295 136.072 245.105 135.736 246.323 134.883L245.176 133.245C244.474 133.736 243.18 134.072 241.094 134.072V136.072ZM246.341 134.87C247.548 133.985 248.19 132.763 248.19 131.28H246.19C246.19 132.101 245.871 132.735 245.158 133.258L246.341 134.87ZM248.19 131.28C248.19 130.444 247.956 129.669 247.486 128.985L245.837 130.119C246.071 130.459 246.19 130.836 246.19 131.28H248.19ZM247.486 128.985C247.004 128.285 246.205 127.681 245.225 127.14L244.258 128.892C245.134 129.375 245.615 129.795 245.837 130.119L247.486 128.985ZM245.238 127.148C244.274 126.597 242.921 125.999 241.207 125.352L240.5 127.224C242.178 127.857 243.417 128.411 244.245 128.884L245.238 127.148ZM241.212 125.355C239.576 124.725 238.194 124.103 237.057 123.488L236.106 125.248C237.337 125.913 238.803 126.571 240.495 127.221L241.212 125.355ZM237.057 123.488C235.978 122.905 235.193 122.23 234.659 121.483L233.032 122.645C233.778 123.69 234.817 124.551 236.106 125.248L237.057 123.488ZM234.659 121.483C234.17 120.798 233.886 119.866 233.886 118.608H231.886C231.886 120.166 232.241 121.538 233.032 122.645L234.659 121.483ZM233.886 118.608C233.886 116.755 234.608 115.39 236.084 114.398L234.967 112.738C232.923 114.114 231.886 116.109 231.886 118.608H233.886ZM236.077 114.402C237.658 113.358 239.784 112.792 242.534 112.792V110.792C239.523 110.792 236.977 111.41 234.974 112.734L236.077 114.402ZM242.534 112.792C244.034 112.792 245.411 112.945 246.67 113.245L247.133 111.299C245.704 110.959 244.169 110.792 242.534 110.792V112.792ZM246.697 113.251C248.005 113.525 249.213 113.918 250.324 114.429L251.159 112.611C249.902 112.034 248.55 111.595 247.106 111.293L246.697 113.251ZM249.822 113.126L248.382 116.486L250.221 117.274L251.661 113.914L249.822 113.126ZM249.682 115.955C248.554 115.491 247.377 115.093 246.154 114.763L245.633 116.693C246.778 117.003 247.873 117.373 248.921 117.805L249.682 115.955ZM246.154 114.763C244.884 114.419 243.58 114.248 242.246 114.248V116.248C243.407 116.248 244.535 116.397 245.633 116.693L246.154 114.763ZM242.246 114.248C240.43 114.248 238.888 114.546 237.734 115.262L238.789 116.962C239.491 116.526 240.605 116.248 242.246 116.248V114.248ZM237.743 115.257C236.581 115.962 235.918 117.022 235.918 118.368H237.918C237.918 117.794 238.15 117.35 238.78 116.967L237.743 115.257ZM235.918 118.368C235.918 119.285 236.194 120.12 236.765 120.823L238.318 119.561C238.057 119.24 237.918 118.859 237.918 118.368H235.918ZM236.786 120.847C237.327 121.472 238.151 122.023 239.158 122.526L240.053 120.738C239.14 120.281 238.588 119.872 238.297 119.537L236.786 120.847ZM239.194 122.543C240.208 123.001 241.537 123.552 243.176 124.195L243.907 122.333C242.282 121.696 240.987 121.159 240.017 120.721L239.194 122.543ZM243.192 124.201C244.791 124.797 246.135 125.401 247.232 126.01L248.203 124.262C246.996 123.591 245.556 122.947 243.891 122.327L243.192 124.201ZM247.232 126.01C248.269 126.586 249.017 127.267 249.521 128.036L251.194 126.94C250.482 125.853 249.47 124.966 248.203 124.262L247.232 126.01ZM249.53 128.05C249.999 128.74 250.27 129.666 250.27 130.896H252.27C252.27 129.374 251.932 128.028 251.185 126.926L249.53 128.05Z" fill="#F07708"/>
<path d="M165.88 51.4H186.04C189.4 51.4 191.832 52.168 193.336 53.704C194.872 55.208 195.64 57.64 195.64 61V65.8C195.64 69.16 194.872 71.608 193.336 73.144C191.832 74.648 189.4 75.4 186.04 75.4H174.52V85H165.88V51.4ZM187 61C187 59.08 186.04 58.12 184.12 58.12H174.52V68.68H184.12C186.04 68.68 187 67.72 187 65.8V61ZM225.398 77.8C225.398 80.2 224.71 82.088 223.334 83.464C221.99 84.808 220.118 85.48 217.718 85.48H206.678C204.278 85.48 202.39 84.808 201.014 83.464C199.67 82.088 198.998 80.2 198.998 77.8V66.76C198.998 64.36 199.67 62.488 201.014 61.144C202.39 59.768 204.278 59.08 206.678 59.08H217.718C220.118 59.08 221.99 59.768 223.334 61.144C224.71 62.488 225.398 64.36 225.398 66.76V77.8ZM216.998 67.48C216.998 66.2 216.358 65.56 215.078 65.56H209.318C208.038 65.56 207.398 66.2 207.398 67.48V77.08C207.398 78.36 208.038 79 209.318 79H215.078C216.358 79 216.998 78.36 216.998 77.08V67.48ZM256.124 74.92L260.444 59.56H269.564L261.644 85H252.764L247.964 69.64L243.164 85H234.284L226.364 59.56H235.484L239.804 74.92L244.124 59.56H251.804L256.124 74.92ZM280.849 65.08C279.569 65.08 278.929 65.72 278.929 67V69.64H287.089V67C287.089 65.72 286.449 65.08 285.169 65.08H280.849ZM294.529 84.52C288.353 85.16 282.753 85.48 277.729 85.48C275.553 85.48 273.809 84.824 272.497 83.512C271.185 82.2 270.529 80.456 270.529 78.28V66.76C270.529 64.36 271.201 62.488 272.545 61.144C273.921 59.768 275.809 59.08 278.209 59.08H287.809C290.209 59.08 292.081 59.768 293.425 61.144C294.801 62.488 295.489 64.36 295.489 66.76V75.64H278.929V77.56C278.929 78.04 279.089 78.44 279.409 78.76C279.729 79.08 280.129 79.24 280.609 79.24C283.777 79.24 288.417 79 294.529 78.52V84.52ZM314.431 66.52C312.415 66.52 310.335 67 308.191 67.96V85H299.791V59.56H307.231L307.711 62.68C310.463 60.28 313.343 59.08 316.351 59.08H318.511V66.52H314.431Z" fill="#EC0000"/>
<g filter="url(#filter0_d)">
<path d="M173.686 148.923C66.9866 169.478 37.2331 176.042 35.6938 176.755L6 52.5895L219.413 9.82144" stroke="#456AA2" stroke-width="3"/>
</g>
<defs>
<filter id="filter0_d" x="0.179108" y="0.473297" width="252.628" height="190.977" filterUnits="userSpaceOnUse" color-interpolation-filters="sRGB">
<feFlood flood-opacity="0" result="BackgroundImageFix"/>
<feColorMatrix in="SourceAlpha" type="matrix" values="0 0 0 0 0 0 0 0 0 0 0 0 0 0 0 0 0 0 127 0"/>
<feOffset dy="4"/>
<feGaussianBlur stdDeviation="2"/>
<feColorMatrix type="matrix" values="0 0 0 0 0 0 0 0 0 0 0 0 0 0 0 0 0 0 0.25 0"/>
<feBlend mode="normal" in2="BackgroundImageFix" result="effect1_dropShadow"/>
<feBlend mode="normal" in="SourceGraphic" in2="effect1_dropShadow" result="shape"/>
</filter>
</defs>
</svg>
