<?xml version="1.0" encoding="iso-8859-1"?>
<!-- Generator: Adobe Illustrator 19.0.0, SVG Export Plug-In . SVG Version: 6.00 Build 0)  -->
<svg version="1.1" id="Capa_1" xmlns="http://www.w3.org/2000/svg" xmlns:xlink="http://www.w3.org/1999/xlink" x="0px" y="0px"
	 viewBox="0 0 512 512" style="enable-background:new 0 0 512 512;" xml:space="preserve">
<g>
	<g>
		<path d="M503.335,213.554l-14.952-6.972c2.958-4.01,5.542-8.342,7.696-12.962l12.479-27.189
			c3.498-7.503,0.252-16.433-7.255-19.934L202.424,7.034c-37.48-17.477-82.191-1.204-99.669,36.277l-38.036,81.566
			c-17.478,37.48-1.204,82.191,36.277,99.668l95.28,44.43l-54.839,93.014h-19.439v-15c0-24.813-20.187-45-45-45H15
			c-8.284,0-15,6.716-15,15v179.999c0,8.284,6.716,15,15,15h62c24.813,0,45-20.187,45-45v-15h45
			c15.721,0,30.506-8.371,38.636-21.928l72.619-122.859l67.443,31.45c22.541,10.512,49.29,0.777,59.802-21.766l6.339-13.594
			l40.784,19.018c7.512,3.502,16.434,0.25,19.934-7.255l38.036-81.567C514.092,225.98,510.844,217.055,503.335,213.554z
			 M91.999,466.99c0,8.271-6.729,15-15,15H30V331.991h47c8.271,0,15,6.729,15,15V466.99z M179.857,414.715
			c-2.691,4.487-7.618,7.275-12.858,7.275h-45v-30h28.008c5.31,0,10.225-2.808,12.921-7.382l60.664-102.894l27.343,12.75
			L179.857,414.715z M378.31,304.208c-3.503,7.512-12.417,10.761-19.934,7.255c-1.81-0.844-166.443-77.613-168.328-78.492
			l71.556-56.786c4.48-3.555,10.482-4.262,15.666-1.845l119.141,55.557c4.62,2.154,9.383,3.812,14.227,4.982L378.31,304.208z
			 M409.092,202.708l-119.141-55.557c-15.549-7.25-33.556-5.129-46.993,5.535l-76.045,60.349c-4.478,3.553-10.478,4.261-15.66,1.845
			l-37.577-17.522c-0.001,0-0.002-0.001-0.003-0.001c-22.487-10.488-32.251-37.314-21.764-59.801l38.036-81.567
			c10.487-22.49,37.313-32.252,59.802-21.766l285.485,133.124l-6.339,13.595C458.381,203.483,431.634,213.221,409.092,202.708z
			 M451.705,288.781l-27.189-12.679l19.016-40.78c6.933-1.472,13.521-3.843,19.939-7.258l13.591,6.338L451.705,288.781z"/>
	</g>
</g>
<g>
	<g>
		<path d="M356.544,244.406l-27.189-12.678c-7.508-3.501-16.433-0.253-19.934,7.255c-3.501,7.508-0.252,16.433,7.255,19.934
			l27.189,12.678c7.51,3.502,16.434,0.251,19.934-7.255C367.3,256.832,364.052,247.908,356.544,244.406z"/>
	</g>
</g>
<g>
</g>
<g>
</g>
<g>
</g>
<g>
</g>
<g>
</g>
<g>
</g>
<g>
</g>
<g>
</g>
<g>
</g>
<g>
</g>
<g>
</g>
<g>
</g>
<g>
</g>
<g>
</g>
<g>
</g>
</svg>
