<?xml version="1.0" encoding="iso-8859-1"?>
<!-- Generator: Adobe Illustrator 19.0.0, SVG Export Plug-In . SVG Version: 6.00 Build 0)  -->
<svg version="1.1" id="Capa_1" xmlns="http://www.w3.org/2000/svg" xmlns:xlink="http://www.w3.org/1999/xlink" x="0px" y="0px"
	 viewBox="0 0 512 512" style="enable-background:new 0 0 512 512;" xml:space="preserve">
<g>
	<g>
		<path d="M256,91c-90.981,0-165,74.019-165,165s74.019,165,165,165s165-74.019,165-165S346.981,91,256,91z M256,391
			c-74.439,0-135-60.561-135-135s60.561-135,135-135s135,60.561,135,135S330.439,391,256,391z"/>
	</g>
</g>
<g>
	<g>
		<path d="M256,451c-8.284,0-15,6.716-15,15v31c0,8.284,6.716,15,15,15s15-6.716,15-15v-31C271,457.716,264.284,451,256,451z"/>
	</g>
</g>
<g>
	<g>
		<path d="M256,0c-8.284,0-15,6.716-15,15v31c0,8.284,6.716,15,15,15s15-6.716,15-15V15C271,6.716,264.284,0,256,0z"/>
	</g>
</g>
<g>
	<g>
		<path d="M497,241h-31c-8.284,0-15,6.716-15,15s6.716,15,15,15h31c8.284,0,15-6.716,15-15S505.284,241,497,241z"/>
	</g>
</g>
<g>
	<g>
		<path d="M46,241H15c-8.284,0-15,6.716-15,15s6.716,15,15,15h31c8.284,0,15-6.716,15-15S54.284,241,46,241z"/>
	</g>
</g>
<g>
	<g>
		<path d="M476.836,128.501c-4.142-7.174-13.316-9.633-20.49-5.49l-26.016,15.02c-7.174,4.142-9.632,13.316-5.49,20.49
			c4.155,7.196,13.337,9.62,20.49,5.49l26.016-15.02C478.52,144.849,480.978,135.675,476.836,128.501z"/>
	</g>
</g>
<g>
	<g>
		<path d="M87.16,353.48c-4.141-7.175-13.316-9.633-20.49-5.491L40.654,363.01c-7.174,4.142-9.632,13.316-5.49,20.49
			c4.163,7.21,13.35,9.613,20.49,5.49l26.016-15.02C88.844,369.828,91.302,360.654,87.16,353.48z"/>
	</g>
</g>
<g>
	<g>
		<path d="M383.5,35.164c-7.175-4.143-16.349-1.684-20.49,5.49L347.989,66.67c-4.142,7.174-1.684,16.348,5.49,20.49
			c7.149,4.128,16.334,1.709,20.49-5.49l15.021-26.016C393.132,48.48,390.674,39.306,383.5,35.164z"/>
	</g>
</g>
<g>
	<g>
		<path d="M158.52,424.84c-7.175-4.142-16.348-1.684-20.49,5.49l-15.021,26.016c-4.142,7.174-1.684,16.348,5.49,20.49
			c7.15,4.128,16.335,1.708,20.49-5.49l15.021-26.016C168.152,438.156,165.694,428.982,158.52,424.84z"/>
	</g>
</g>
<g>
	<g>
		<path d="M81.67,138.03l-26.016-15.02c-7.175-4.143-16.349-1.684-20.49,5.49c-4.143,7.174-1.685,16.348,5.49,20.49l26.016,15.02
			c7.149,4.128,16.334,1.709,20.49-5.49C91.302,151.346,88.844,142.172,81.67,138.03z"/>
	</g>
</g>
<g>
	<g>
		<path d="M471.346,363.011L445.33,347.99c-7.176-4.142-16.349-1.684-20.49,5.49c-4.142,7.174-1.684,16.348,5.49,20.49
			l26.016,15.021c7.15,4.128,16.334,1.709,20.49-5.49C480.978,376.327,478.52,367.153,471.346,363.011z"/>
	</g>
</g>
<g>
	<g>
		<path d="M164.01,66.67l-15.02-26.016c-4.142-7.174-13.316-9.633-20.49-5.49c-7.174,4.142-9.632,13.316-5.49,20.49l15.02,26.016
			c4.155,7.197,13.337,9.621,20.49,5.49C165.694,83.018,168.152,73.844,164.01,66.67z"/>
	</g>
</g>
<g>
	<g>
		<path d="M388.99,456.346l-15.02-26.016c-4.142-7.174-13.317-9.632-20.491-5.49c-7.174,4.142-9.632,13.316-5.49,20.49
			l15.021,26.016c4.163,7.21,13.35,9.613,20.49,5.49C390.674,472.694,393.132,463.52,388.99,456.346z"/>
	</g>
</g>
<g>
	<g>
		<path d="M330.806,253.598c-0.772-4.76-3.785-8.857-8.098-11.014l-46.583-23.292l23.292-46.584
			c3.29-6.58,1.322-14.575-4.646-18.877c-5.968-4.301-14.175-3.64-19.377,1.562l-90,90c-3.41,3.409-4.972,8.25-4.2,13.009
			c0.772,4.76,3.785,8.858,8.098,11.015l46.583,23.292l-23.292,46.583c-3.29,6.58-1.322,14.575,4.646,18.877
			c6.031,4.346,14.229,3.586,19.377-1.562l90-90C330.016,263.198,331.578,258.357,330.806,253.598z M270.048,280.739
			c-1.282-3.425-3.811-6.392-7.339-8.156l-41.386-20.693l20.63-20.63c1.282,3.425,3.811,6.392,7.339,8.156l41.386,20.693
			L270.048,280.739z"/>
	</g>
</g>
<g>
</g>
<g>
</g>
<g>
</g>
<g>
</g>
<g>
</g>
<g>
</g>
<g>
</g>
<g>
</g>
<g>
</g>
<g>
</g>
<g>
</g>
<g>
</g>
<g>
</g>
<g>
</g>
<g>
</g>
</svg>
