<svg width="350" height="200" viewBox="0 0 1237 599" fill="none" xmlns="http://www.w3.org/2000/svg">
<line x1="1000.24" y1="60.5883" x2="880.723" y2="539.546" stroke="#F7A70C" stroke-width="30"/>
<line x1="1180.85" y1="343.286" x2="700.112" y2="224.263" stroke="#F7A70C" stroke-width="30"/>
<line x1="1154.98" y1="181.845" x2="723.005" y2="421.391" stroke="#F7A70C" stroke-width="30"/>
<line x1="808.101" y1="90.0848" x2="1087.68" y2="491.022" stroke="#F7A70C" stroke-width="30"/>
<ellipse cx="938.797" cy="293.523" rx="145.474" ry="139.106" transform="rotate(13.9059 938.797 293.523)" fill="#FFD703"/>
<path d="M1090.15 331.5C1070.97 408.961 989.341 456.197 907.095 435.835C824.849 415.472 774.685 335.605 793.863 258.144C813.041 180.683 894.674 133.447 976.92 153.81C1059.17 174.172 1109.33 254.039 1090.15 331.5Z" stroke="white" stroke-width="20"/>
<rect x="369.5" y="279.5" width="589" height="255" rx="14.5" fill="#4482DF" stroke="black" stroke-width="5"/>
<mask id="path-8-inside-1" fill="white">
<rect x="390" y="221" width="97" height="44" rx="3"/>
</mask>
<rect x="390" y="221" width="97" height="44" rx="3" fill="#5E5E5E" stroke="black" stroke-width="10" mask="url(#path-8-inside-1)"/>
<mask id="path-9-inside-2" fill="white">
<rect x="840" y="221" width="97" height="44" rx="3"/>
</mask>
<rect x="840" y="221" width="97" height="44" rx="3" fill="#5E5E5E" stroke="black" stroke-width="10" mask="url(#path-9-inside-2)"/>
<line x1="441" y1="227" x2="441" y2="259" stroke="white" stroke-width="10"/>
<line x1="457.036" y1="243" x2="425.037" y2="243.236" stroke="white" stroke-width="10"/>
<line x1="903.036" y1="242" x2="871.037" y2="242.236" stroke="white" stroke-width="10"/>
<path d="M475.034 378.293C475.034 389.475 471.372 398.044 464.048 404.001C456.724 409.958 446.299 412.937 432.773 412.937H421.641V453H404.136V345.92H434.971C448.35 345.92 458.359 348.654 465 354.123C471.689 359.592 475.034 367.648 475.034 378.293ZM421.641 398.215H430.942C439.927 398.215 446.519 396.652 450.718 393.527C454.917 390.402 457.017 385.52 457.017 378.879C457.017 372.727 455.137 368.137 451.377 365.109C447.617 362.082 441.758 360.568 433.799 360.568H421.641V398.215ZM591.489 399.313C591.489 416.745 587.119 430.295 578.379 439.963C569.688 449.631 557.358 454.465 541.392 454.465C525.229 454.465 512.803 449.68 504.111 440.109C495.469 430.49 491.147 416.843 491.147 399.167C491.147 381.491 495.493 367.917 504.185 358.444C512.925 348.972 525.376 344.235 541.538 344.235C557.456 344.235 569.761 349.045 578.452 358.664C587.144 368.283 591.489 381.833 591.489 399.313ZM509.751 399.313C509.751 412.497 512.412 422.507 517.734 429.343C523.057 436.13 530.942 439.523 541.392 439.523C551.792 439.523 559.629 436.154 564.902 429.416C570.225 422.678 572.886 412.644 572.886 399.313C572.886 386.179 570.249 376.218 564.976 369.431C559.751 362.644 551.938 359.25 541.538 359.25C531.04 359.25 523.105 362.644 517.734 369.431C512.412 376.218 509.751 386.179 509.751 399.313ZM713.291 453H694.248L676.084 389.133C675.303 386.35 674.326 382.346 673.154 377.121C671.982 371.848 671.274 368.186 671.03 366.135C670.542 369.26 669.736 373.312 668.613 378.293C667.539 383.273 666.636 386.984 665.903 389.426L648.179 453H629.136L615.293 399.387L601.23 345.92H619.102L634.409 408.322C636.802 418.332 638.511 427.17 639.536 434.836C640.073 430.686 640.879 426.047 641.953 420.92C643.027 415.793 644.004 411.643 644.883 408.469L662.314 345.92H679.673L697.544 408.762C699.253 414.572 701.06 423.264 702.964 434.836C703.696 427.854 705.454 418.967 708.237 408.176L723.472 345.92H741.196L713.291 453ZM817.002 453H756.431V345.92H817.002V360.715H773.936V389.865H814.292V404.514H773.936V438.132H817.002V453ZM857.725 395.725H869.883C878.037 395.725 883.945 394.211 887.607 391.184C891.27 388.156 893.101 383.664 893.101 377.707C893.101 371.652 891.123 367.307 887.168 364.67C883.213 362.033 877.256 360.715 869.297 360.715H857.725V395.725ZM857.725 410.227V453H840.22V345.92H870.469C884.287 345.92 894.517 348.508 901.157 353.684C907.798 358.859 911.118 366.672 911.118 377.121C911.118 390.451 904.185 399.948 890.317 405.612L920.566 453H900.645L875.01 410.227H857.725Z" fill="white"/>
<path d="M34.8 352.6C47.4667 352.6 58.4667 354.4 67.8 358C77.2667 361.6 84.8667 368.467 90.6 378.6C96.4667 388.733 99.4 402.933 99.4 421.2C99.4 467.733 78.8 491 37.6 491H0.400001V352.6H34.8ZM29.2 373.8V469.8H39.2C49.0667 469.8 56.6 466.333 61.8 459.4C67 452.333 69.6 439.6 69.6 421.2C69.6 408.4 68.2667 398.533 65.6 391.6C63.0667 384.667 59.6 380 55.2 377.6C50.8 375.067 45.4 373.8 39 373.8H29.2ZM147.559 352.6V491H118.759V352.6H147.559ZM226.275 349.4C234.675 349.4 242.208 350.867 248.875 353.8C255.675 356.6 261.942 360.667 267.675 366L253.075 381C248.542 377.4 244.342 374.8 240.475 373.2C236.608 371.6 232.208 370.8 227.275 370.8C206.875 370.8 196.675 387.8 196.675 421.8C196.675 434.733 197.608 444.933 199.475 452.4C201.475 459.733 204.342 464.933 208.075 468C211.942 471.067 216.942 472.6 223.075 472.6C229.475 472.6 235.342 471 240.675 467.8V433H223.875L221.075 412.2H268.275V480.2C261.742 484.6 254.608 488.067 246.875 490.6C239.142 493 231.342 494.2 223.475 494.2C204.542 494.2 190.342 488.2 180.875 476.2C171.542 464.2 166.875 446 166.875 421.6C166.875 406 169.475 392.8 174.675 382C179.875 371.067 186.942 362.933 195.875 357.6C204.942 352.133 215.075 349.4 226.275 349.4ZM318.263 352.6V491H289.463V352.6H318.263Z" fill="#4482DF"/>
</svg>
